<svg xmlns="http://www.w3.org/2000/svg" width="960" height="660.142" viewBox="0 0 960 660.142">
	<path data-name="Rectangle 5972" fill="none" d="M0 0h960v660H0z" />
	<g data-name="Group 162405">
		<g data-name="Group 162397">
			<path data-name="Path 15733" d="M801.824 285.335a49.175 49.175 0 11-49.175-49.175 49.175 49.175 0 0149.175 49.175" fill="#ea0553" />
			<path data-name="Path 15734" d="M465.479 87.831c124.972 24.952 206.055 146.489 181.1 271.462S500.093 565.347 375.12 540.398 169.066 393.906 194.017 268.934 340.507 62.879 465.479 87.831" fill="#ffbe0b" />
			<path data-name="Path 15735" d="M427.086 254.225l72.618-182.4a197.45 197.45 0 00-34.183-10.097A195.5 195.5 0 00333.41 81.721z" fill="#fb5607" />
			<g data-name="Group 162394">
				<path data-name="Path 16598" d="M346.234 344.942H72.71a30.184 30.184 0 01-30.1-30.094V133.997a30.184 30.184 0 0130.1-30.094h273.524a30.184 30.184 0 0130.094 30.094v180.85a30.184 30.184 0 01-30.094 30.094" fill="#fff" />
				<path data-name="Path 16601" d="M346.226 346.55H72.706A31.741 31.741 0 0141 314.844V133.997a31.741 31.741 0 0131.706-31.706h273.52a31.741 31.741 0 0131.71 31.706v180.847a31.741 31.741 0 01-31.71 31.706M72.706 105.511a28.517 28.517 0 00-28.486 28.486v180.847a28.517 28.517 0 0028.486 28.486h273.52a28.517 28.517 0 0028.486-28.486V133.997a28.517 28.517 0 00-28.486-28.486z" />
				<path data-name="Path 16602" d="M376.328 158.218h-332.2a1.61 1.61 0 010-3.22h332.2a1.61 1.61 0 010 3.22" />
				<path data-name="Path 16603" d="M299.065 319.17H153.684a1.61 1.61 0 010-3.22h145.381a1.61 1.61 0 010 3.22" />
				<g data-name="Group 162395">
					<path data-name="Rectangle 5296" fill="#fb5607" d="M134.118 210.841h31.525v78.093h-31.525z" />
					<path data-name="Rectangle 5297" fill="#73c0ae" d="M193.802 177.229h31.525v111.704h-31.525z" />
					<path data-name="Rectangle 5298" fill="#ffbe0b" d="M74.431 249.742h31.525v39.191H74.431z" />
				</g>
				<path data-name="Path 18131" d="M348.969 142.892a1.606 1.606 0 01-1.137-.471l-21.733-21.735a1.61 1.61 0 012.274-2.278l21.735 21.735a1.61 1.61 0 01-1.137 2.749" />
				<path data-name="Path 18132" d="M327.234 142.892a1.61 1.61 0 01-1.137-2.749l21.735-21.735a1.61 1.61 0 112.274 2.278l-21.735 21.735a1.606 1.606 0 01-1.137.471" fill="#33384d" />
				<path data-name="Path 18133" d="M317.375 178.836h-69.143a1.61 1.61 0 010-3.22h69.146a1.61 1.61 0 010 3.22" />
				<path data-name="Path 18134" d="M317.376 195.61h-22.162a1.61 1.61 0 010-3.22h22.162a1.61 1.61 0 010 3.22" />
				<path data-name="Path 18135" d="M279.677 195.61h-31.442a1.61 1.61 0 010-3.22h31.443a1.61 1.61 0 010 3.22" />
				<path data-name="Path 18136" d="M277.911 212.387h-29.679a1.61 1.61 0 110-3.22h29.678a1.61 1.61 0 010 3.22" />
			</g>
			<path data-name="Path 15736" d="M710.681 79.892a1.421 1.421 0 011.769-2.142l67.516 34.928a1.421 1.421 0 01-1.306 2.524l-67.519-34.927a1.424 1.424 0 01-.464-.382" />
			<path data-name="Path 15737" d="M430.735 295.537a1.858 1.858 0 01-1.214-3.264l59.153-51.017a1.858 1.858 0 012.427 2.814l-59.153 51.016a1.844 1.844 0 01-1.212.451" />
			<path data-name="Path 15738" d="M780.139 135.268a20.391 20.391 0 1128.634 3.412 20.413 20.413 0 01-28.634-3.412m29.813-23.465a17.549 17.549 0 10-2.937 24.644 17.569 17.569 0 002.937-24.644" />
			<path data-name="Path 15739" d="M508.666 253.131a26.663 26.663 0 1126.663-26.663 26.693 26.693 0 01-26.663 26.663m0-49.61a22.947 22.947 0 1022.946 22.947 22.973 22.973 0 00-22.947-22.947" />
			<path data-name="Path 15740" d="M700.065 64.107a18.97 18.97 0 1026.639 3.178 18.971 18.971 0 00-26.639-3.175" fill="#8338ec" />
			<path data-name="Path 15741" d="M267.303 404.332a1.858 1.858 0 01-3.172-1.314v-31.066a1.858 1.858 0 113.716 0v31.066a1.849 1.849 0 01-.544 1.313" />
			<path data-name="Path 15742" d="M282.836 388.799a1.849 1.849 0 01-1.313.544h-31.067a1.858 1.858 0 110-3.716h31.066a1.858 1.858 0 011.314 3.171" />
			<path data-name="Path 15743" d="M706.363 199.36a56.4 56.4 0 11-56.4-56.4 56.4 56.4 0 0156.4 56.4" />
			<path data-name="Path 15744" d="M782.82 602.157H498.014l-30.918 57.984h319.157z" fill="#fff" />
			<path data-name="Path 15745" d="M467.094 660a1.859 1.859 0 01-1.638-2.733l30.92-57.983a1.856 1.856 0 011.639-.984h284.804a1.857 1.857 0 011.855 1.748l3.433 57.984a1.858 1.858 0 11-3.71.22l-3.329-56.236h-281.94l-30.393 57a1.86 1.86 0 01-1.642.984" />
			<path data-name="Path 15746" d="M588.771 659.999a1.857 1.857 0 01-1.858-1.858c0-6.213-3.1-12.4-8.74-17.418l-13.818-12.306a1.858 1.858 0 112.471-2.775l13.818 12.306c6.439 5.733 9.984 12.905 9.984 20.193a1.857 1.857 0 01-1.858 1.858" />
			<path data-name="Path 15747" d="M789.413 330.872c-22.985-22.957-68.921-52.373-123.441-49.136l-73.868.978c-45.159 0-80.726 17.442-98.954 42.12-21.839 29.567-15.473 54.3-33.662 67.26-21.469 15.3-44.4-51.273-44.4-51.273l-80.321 15.211c-16.56 121.811-11.82 166.776 15.586 204.315 41.461 56.792 120.425 50.315 138.072 8.826l-5.804 43.438h297.254c121.36 71.219 222.948-68.588 9.538-281.737" fill="#010064" />
			<path data-name="Path 15748" d="M708.15 287.033a114.616 114.616 0 00-44.35-6.039s-80 1-86.659 2.128l-3.867 2.909s58.073 38.18 134.871 1.006" fill="#ffe2e2" />
			<path data-name="Path 15749" d="M841.775 633.301c-19.332 0-40.794-6.236-62.4-18.833H482.621a1.858 1.858 0 01-1.842-2.1l4.518-33.8c-9.532 13.5-26.347 22.6-46.826 24.951-26.684 3.059-64.23-6.058-89.616-40.833-28.462-38.985-32.183-87.326-15.927-206.9a1.856 1.856 0 011.5-1.575l80.32-15.212a1.86 1.86 0 012.1 1.22c.16.464 16.17 46.421 33.041 51.822a9.1 9.1 0 008.523-1.457c8.785-6.261 11.527-15.512 15-27.223 3.292-11.1 7.388-24.924 18.248-39.628 19.83-26.846 57.38-42.874 100.449-42.874l73.843-.978c52.206-3.106 98.7 23.629 124.778 49.679 58.6 58.527 98.523 117 115.456 169.088 14.5 44.6 11.793 82.992-7.614 108.114-13.614 17.623-33.678 26.541-56.793 26.541m-357.035-22.551h295.13a1.856 1.856 0 01.94.255c45.884 26.926 90.951 24.369 114.812-6.52 35.792-46.333 16.425-148.5-107.527-272.3-25.512-25.481-70.96-51.628-122.017-48.6l-73.953.981c-41.92 0-78.353 15.464-97.484 41.365-10.471 14.178-14.3 27.086-17.674 38.476-3.529 11.906-6.577 22.189-16.4 29.193a12.762 12.762 0 01-11.814 1.969c-16.975-5.436-31.857-44.278-34.882-52.634l-77.441 14.666c-15.9 117.472-12.257 164.965 15.426 202.883 24.446 33.485 60.549 42.276 86.192 39.332 23.252-2.668 41.446-14.4 48.668-31.376a1.858 1.858 0 013.552.972z" />
			<path data-name="Path 15750" d="M610.168 420.678a1.859 1.859 0 01-1.752-2.477c15.407-43.7 64.871-26.527 104.615-12.73a1.858 1.858 0 11-1.218 3.51c-48.567-16.858-86.759-26.79-99.892 10.457a1.859 1.859 0 01-1.752 1.241" />
			<path data-name="Path 15751" d="M402.983 292.523l-3.139-41.355a18.833 18.833 0 00-5.524-11.607c-14.252-14.051-40.651-30.508-52.143-37.053-24.316-13.848-31.46 3.084-32.248 4.722-5.417 11.263 2.481 30.093 2.481 30.093-2.79 6.107-9.453 9.031-4.615 33 0 0-13.421 10.724-.026 29.406 0 0-10.091 17.753 23.212 25.087l5.171 42.623a41.682 41.682 0 1081.809-15.154z" fill="#ffe2e2" />
			<path data-name="Path 15752" d="M377.484 405.975a43.6 43.6 0 01-43.177-38.317l-5.013-41.326c-12.654-2.985-20.575-7.892-23.557-14.595a15.093 15.093 0 01-.1-11.824c-11.224-16.456-2.738-27.293.141-30.237-3.731-19.314.081-25.247 3.154-30.031.526-.818 1.028-1.6 1.451-2.4-1.485-3.831-7.248-20.165-2.123-30.82l.062-.134a18.27 18.27 0 0111.1-10.177c6.518-2.067 14.483-.459 23.682 4.78 12.881 7.335 38.438 23.454 52.529 37.344a20.724 20.724 0 016.067 12.753l3.131 41.235 14.94 59.6a43.6 43.6 0 01-42.279 54.147m-52.2-207.022a15.626 15.626 0 00-4.744.7 14.642 14.642 0 00-8.856 8.212l-.079.168c-4.988 10.371 2.444 28.389 2.52 28.57a1.864 1.864 0 01-.024 1.49 28.414 28.414 0 01-2.046 3.557c-2.907 4.526-6.2 9.657-2.438 28.3a1.86 1.86 0 01-.662 1.82c-.483.392-11.827 9.924.325 26.872a1.861 1.861 0 01.105 2 11.349 11.349 0 00-.229 9.637c2.563 5.682 10.248 10.079 22.226 12.717a1.858 1.858 0 011.444 1.591l5.172 42.623a39.823 39.823 0 1078.151-14.477l-14.978-59.757a1.851 1.851 0 01-.049-.311l-3.14-41.355a16.979 16.979 0 00-4.976-10.425c-13.844-13.649-39.91-30.014-51.758-36.761-6.04-3.44-11.391-5.168-15.975-5.168" />
			<path data-name="Path 15753" d="M327.075 308.42c-4.375 0-13.6-.854-20.571-7.335a1.858 1.858 0 112.529-2.721c8 7.437 20.015 6.266 20.136 6.254a1.858 1.858 0 01.4 3.695 24.685 24.685 0 01-2.492.108" />
			<path data-name="Path 15754" d="M323.194 283.556a1.855 1.855 0 01-.232-.014 23.368 23.368 0 01-16.82-12.375 1.858 1.858 0 113.307-1.695 19.61 19.61 0 0013.98 10.384 1.858 1.858 0 01-.234 3.7" />
			<path data-name="Path 15755" d="M404.191 284.188l-11.251 10.935-48.049-60.1-32.481-37.439 7.108-.48z" />
			<path data-name="Path 15756" d="M320.211 197.814l-10.93 11.268-20.036-20.607-2.742-11.65a2.038 2.038 0 012.522-2.432l11.471 3.143z" />
			<path data-name="Path 15757" d="M342.297 331.891a1.856 1.856 0 01-1.424-.663c-22.637-26.935-18.527-67.39-17.51-75.013-1.95-1.479-5.97-5.455-11.409-15.644-7.518-14.083-8.06-30.959-1.185-36.852 2.181-1.868 6.971-4.156 14.544 1.528 17.4 13.063 67.057 85.746 69.163 88.834a1.858 1.858 0 01-3.07 2.094c-.512-.751-51.409-75.259-68.323-87.955-2.883-2.165-6.939-4.21-9.9-1.678-4.918 4.215-5.089 18.916 2.045 32.28 6.712 12.572 10.886 14.786 10.928 14.807a1.924 1.924 0 011.045 1.975c-.072.45-6.926 45.346 16.513 73.234a1.857 1.857 0 01-1.421 3.053" />
			<path data-name="Rectangle 5165" fill="#fff" d="M583.042 337.677h120.1v139.438h-120.1z" />
			<path data-name="Path 15758" d="M658.046 159.768c-1.273-11.472-9.924-20.664-20.454-24.851a19.07 19.07 0 00-16.22.981c-4.032 2.2-7.917 6.248-7.9 10.942-8.778-3.949-19.676.067-24.695 8.194-7.557 12.239-5.8 30.091 6.387 38.818 6.982 5 14.451 3.89 22.479 4.271 10.684.508 21.765-2.687 29.665-10.113 7.568-7.114 11.9-17.848 10.742-28.242" />
			<path data-name="Path 15759" d="M673.735 250.521c-29.557-5.373-22.2-30.156-22.2-30.156-8.235-6.58-4.6-23.368-2.054-31.917a4.588 4.588 0 00-3.64-5.842c-24.962-4.181-45.292-21.59-51.024-1.654-1.251 4.351-1.478 5-2.9 10.425-10.7 40.891-24.777 72.837 16.651 75.588l-.049 22.256 65.213-2.187z" fill="#ffe2e2" />
			<path data-name="Path 15760" d="M673.736 284.966a1.857 1.857 0 01-1.858-1.858v-33.427a1.858 1.858 0 013.716 0v33.429a1.857 1.857 0 01-1.858 1.858" />
			<path data-name="Path 15761" d="M608.541 285.608a1.859 1.859 0 01-1.858-1.862l.033-16.786a1.858 1.858 0 013.716.008l-.033 16.786a1.858 1.858 0 01-1.858 1.855" />
			<path data-name="Path 15762" d="M608.573 268.822h-.125c-12.549-.833-20.859-4.354-25.406-10.766-8.249-11.63-2.8-31.278 3.513-54.028 1.177-4.244 2.4-8.633 3.568-13.117a1.858 1.858 0 113.595.941c-1.18 4.511-2.4 8.912-3.582 13.169-6.058 21.837-11.29 40.7-4.062 50.886 3.859 5.442 11.259 8.453 22.622 9.209a1.858 1.858 0 01-.122 3.711" />
			<path data-name="Path 15763" d="M629.019 199.934a1.845 1.845 0 01-.389-.042l-40.8-8.7a1.858 1.858 0 11.776-3.634l40.795 8.7a1.858 1.858 0 01-.385 3.675" fill="#ea0553" />
			<path data-name="Path 15764" d="M616.69 269.222a79.379 79.379 0 01-8.316-.41 1.86 1.86 0 01.4-3.7 91.057 91.057 0 0016.515 0 1.86 1.86 0 01.386 3.7c-.237.025-4.014.41-8.98.41" />
			<path data-name="Path 15765" d="M626.386 267.028s1.592 19-16.319 14.454l-.632-13.989z" />
			<path data-name="Path 15766" d="M627.211 168.742a23.868 23.868 0 11-23.868-23.868 23.868 23.868 0 0123.868 23.868" />
			<path data-name="Path 15767" d="M652.908 151.04a20.394 20.394 0 11-20.394-20.394 20.393 20.393 0 0120.394 20.394" />
			<path data-name="Path 15768" d="M632.516 169.369a22.252 22.252 0 1122.252-22.251 22.278 22.278 0 01-22.252 22.252m0-40.788a18.536 18.536 0 1018.535 18.537 18.558 18.558 0 00-18.535-18.537" />
			<path data-name="Rectangle 5166" fill="#0c63ff" d="M605.845 324.834h74.495v18.793h-74.495z" />
			<path data-name="Path 15769" d="M669.792 223.877a16.752 16.752 0 11-16.752-16.752 16.752 16.752 0 0116.752 16.752" fill="#ffe2e2" />
			<path data-name="Path 15770" d="M649.961 228.739a1.858 1.858 0 01-1.51-2.938l6.136-8.585a1.858 1.858 0 013.024 2.16l-6.133 8.587a1.858 1.858 0 01-1.514.778" />
			<path data-name="Path 15771" d="M630.512 212.7a3.757 3.757 0 11-3.758-3.757 3.757 3.757 0 013.758 3.757" />
			<path data-name="Path 15772" d="M600.234 208.942a3.757 3.757 0 11-3.757-3.758 3.757 3.757 0 013.757 3.758" />
			<path data-name="Path 15773" d="M626.246 235.662a20.069 20.069 0 01-3.147-.249 19.749 19.749 0 113.147.249m-.077-35.952a16.16 16.16 0 102.558.2 16.352 16.352 0 00-2.558-.2" fill="#ea0553" />
			<path data-name="Path 15774" d="M585.42 226.952a19.831 19.831 0 1119.574-16.727 19.859 19.859 0 01-19.574 16.727m-.046-35.949a16.152 16.152 0 102.557.2 16.346 16.346 0 00-2.557-.2" fill="#ea0553" />
			<path data-name="Path 15775" d="M598.114 233.759a1.829 1.829 0 01-.554-.085 1.857 1.857 0 01-1.219-2.327l7.841-25.109a1.858 1.858 0 113.546 1.108l-7.837 25.109a1.858 1.858 0 01-1.772 1.3" />
			<path data-name="Path 15776" d="M595.324 241.561a1.848 1.848 0 01-1.267-.5l-5.884-5.5a1.858 1.858 0 112.537-2.716l5.883 5.5a1.858 1.858 0 01-1.269 3.216" />
			<path data-name="Path 15777" d="M482.623 614.468c-.052 0-.1 0-.157-.007a1.858 1.858 0 01-1.7-2.007l21.064-250.968a1.858 1.858 0 013.7.311l-21.06 250.966a1.857 1.857 0 01-1.849 1.7" fill="#fff" />
			<path data-name="Path 15778" d="M889.536 497.181a1.856 1.856 0 01-1.52-.787c-28.756-40.774-46.941-43.894-72.11-48.212-12.122-2.08-25.861-4.438-42.8-11.535a1.858 1.858 0 111.436-3.427c16.552 6.933 30.071 9.253 42 11.3 25.071 4.3 44.873 7.7 74.518 49.733a1.859 1.859 0 01-1.516 2.929" fill="#fff" />
			<path data-name="Path 15779" d="M778.467 436.011l-38.164-28.613s-15.793-63.8-34.991-61.944-2.17 46.641-2.17 46.641-36.176-25.864-45.384-28.958-20.2-5.264-26.42 4.009c-5.516 8.218 2.172 14.879 10.884 19.755-6.732-3.279-21.707-9.034-27.762 1.068-4.484 7.479 3.044 14.82 10.429 19.787-5.329-1.956-11.268-2.495-14.72 2.439-5.655 8.082.9 15.8 12.3 22.979-3.229 2.993-7.41 8.854-3.128 16.941 6.393 12.076 53.37 32.483 53.37 32.483l43.831 34.279a50.929 50.929 0 1061.926-80.866" fill="#ffe2e2" />
			<path data-name="Path 15780" d="M747.738 529.568a52.186 52.186 0 01-32.34-11.225l-43.645-34.134c-3.927-1.716-47.594-21.019-54.054-33.223-4.169-7.875-1.212-13.893 1.87-17.476-7.816-5.226-12.108-10.177-13.1-15.1a11.716 11.716 0 012.178-9.281 10.711 10.711 0 019.049-4.647c-7.953-7.429-7.231-13.461-4.828-17.469 3.423-5.71 9.893-7.72 18.423-5.972a13.939 13.939 0 01-3.387-6.024 10.981 10.981 0 011.893-8.908c6.957-10.364 18.916-7.974 28.555-4.734 7.423 2.494 30.978 18.726 41.158 25.873-3.1-9.676-8.31-29.48-2.624-38.639a10.4 10.4 0 018.25-5.007c19.71-1.914 34.508 53.575 36.812 62.7l37.637 28.218a52.787 52.787 0 01-23.47 94.382 53.92 53.92 0 01-8.374.659M618.001 408.2a7.217 7.217 0 00-6.31 3.058 8.038 8.038 0 00-1.581 6.416c.847 4.2 5.339 8.883 13.349 13.926a1.858 1.858 0 01.273 2.935c-3.224 2.988-6.32 7.965-2.75 14.71 4.993 9.432 39.569 26.043 52.469 31.648a1.843 1.843 0 01.4.24l43.832 34.279a49.071 49.071 0 1059.667-77.916l-38.164-28.614a1.858 1.858 0 01-.689-1.04c-4.287-17.313-18.609-61.964-33.008-60.542a6.764 6.764 0 00-5.45 3.267c-5.44 8.762 1.647 32.47 4.837 40.866a1.858 1.858 0 01-2.818 2.172c-.359-.257-36.053-25.737-44.895-28.708-8.911-2.994-18.763-4.946-24.286 3.282a7.328 7.328 0 00-1.365 5.974c.847 3.543 4.755 7.286 11.613 11.125a1.858 1.858 0 01-1.717 3.29c-5.851-2.85-20.036-8.519-25.355.354-3.76 6.273 3.293 12.865 9.872 17.29a1.858 1.858 0 01-1.678 3.286 18.454 18.454 0 00-6.247-1.3" />
			<path data-name="Path 15781" d="M695.891 415.843a1.854 1.854 0 01-.836-.2l-53.67-27.084a1.858 1.858 0 111.674-3.318l53.67 27.084a1.858 1.858 0 01-.838 3.517" />
			<path data-name="Path 15782" d="M712.418 399.332a1.858 1.858 0 01-.93-.251l-9.278-5.38a1.858 1.858 0 111.864-3.215l9.279 5.379a1.858 1.858 0 01-.934 3.466" />
			<path data-name="Path 15783" d="M680.579 436.793a1.852 1.852 0 01-.814-.189l-55.692-27.178a1.858 1.858 0 111.629-3.339l55.693 27.177a1.859 1.859 0 01-.816 3.529" />
			<path data-name="Path 15784" d="M668.599 458.755a1.85 1.85 0 01-.848-.206l-46.132-23.724a1.858 1.858 0 011.7-3.3l46.131 23.719a1.858 1.858 0 01-.851 3.511" />
			<path data-name="Rectangle 5167" fill="none" d="M189.507 57.892h725.875V660H189.507z" />
		</g>
		<path data-name="Path 18851" d="M194.1 498.191a3.69 3.69 0 012.68-.891 4.027 4.027 0 011.363.366 3.7 3.7 0 01.971 6.1 3.766 3.766 0 01-5.327-.279 3.912 3.912 0 01-.778-1.284 3.576 3.576 0 01-.186-1.45 3.648 3.648 0 011.277-2.567" />
		<path data-name="Path 18852" d="M234.314 410.288a3.834 3.834 0 015.141 1.27 3.724 3.724 0 11-6.371 3.857 3.651 3.651 0 011.23-5.127" />
		<path data-name="Path 18853" d="M152.713 427.319a3.753 3.753 0 012.67 7.016 3.7 3.7 0 01-4.815-2.194 3.678 3.678 0 012.145-4.822" />
		<path data-name="Path 18854" d="M246.125 484.751a7.211 7.211 0 014.868-2.414 7.383 7.383 0 015.141 1.536 7.1 7.1 0 012.554 4.723 7.186 7.186 0 01-1.35 5.26 6.986 6.986 0 01-4.775 2.76 7.33 7.33 0 01-5.413-1.663 7.13 7.13 0 01-2.733-4.974 6.9 6.9 0 011.709-5.227" />
		<path data-name="Path 18855" d="M201.394 386.174a7.425 7.425 0 015.467-.246 6.95 6.95 0 014.057 3.5 7.406 7.406 0 01.459 5.327 7.3 7.3 0 01-3.4 4.269 6.844 6.844 0 01-5.453.572 7.09 7.09 0 01-4.316-3.7 7.551 7.551 0 01-.466-5.659 6.758 6.758 0 013.658-4.07" />
	</g>
</svg>