<svg xmlns="http://www.w3.org/2000/svg" xmlns:xlink="http://www.w3.org/1999/xlink" width="100" zoomAndPan="magnify" viewBox="0 0 75 74.999997" height="100" preserveAspectRatio="xMidYMid meet" version="1.0">
	<defs>
		<clipPath id="c8ca71b510">
			<path d="M 3.945312 3.75 L 8.863281 3.75 L 8.863281 7.5 L 3.945312 7.5 Z M 3.945312 3.75 " clip-rule="nonzero" />
		</clipPath>
		<clipPath id="f5c1773a17">
			<path d="M 36 5.625 L 39 5.625 L 39 12 L 36 12 Z M 36 5.625 " clip-rule="nonzero" />
		</clipPath>
		<clipPath id="2ef8246533">
			<path d="M 58 22 L 63.957031 22 L 63.957031 26 L 58 26 Z M 58 22 " clip-rule="nonzero" />
		</clipPath>
		<clipPath id="70f968181d">
			<path d="M 10.707031 22 L 17 22 L 17 26 L 10.707031 26 Z M 10.707031 22 " clip-rule="nonzero" />
		</clipPath>
	</defs>
	<rect x="-7.5" width="90" fill="#ffffff" y="-7.5" height="89.999996" fill-opacity="1" />
	<rect x="-7.5" width="90" fill="#ea0553" y="-7.5" height="89.999996" fill-opacity="1" />
	<g clip-path="url(#c8ca71b510)">
		<path fill="#ea0553" d="M 3.945312 3.75 L 8.867188 3.75 L 8.867188 7.5 L 3.945312 7.5 Z M 3.945312 3.75 " fill-opacity="1" fill-rule="nonzero" />
	</g>
	<path fill="#ffffff" d="M 42.53125 63.773438 L 32.515625 63.773438 C 32.382812 63.773438 32.253906 63.800781 32.132812 63.851562 C 32.007812 63.902344 31.898438 63.972656 31.804688 64.066406 C 31.710938 64.164062 31.640625 64.269531 31.589844 64.394531 C 31.539062 64.515625 31.511719 64.644531 31.511719 64.777344 C 31.511719 64.910156 31.539062 65.039062 31.589844 65.160156 C 31.640625 65.28125 31.710938 65.390625 31.804688 65.484375 C 31.898438 65.578125 32.007812 65.652344 32.132812 65.703125 C 32.253906 65.753906 32.382812 65.777344 32.515625 65.777344 L 42.53125 65.777344 C 42.664062 65.777344 42.792969 65.753906 42.914062 65.703125 C 43.039062 65.652344 43.144531 65.578125 43.238281 65.484375 C 43.332031 65.390625 43.40625 65.28125 43.457031 65.160156 C 43.507812 65.039062 43.535156 64.910156 43.535156 64.777344 C 43.535156 64.644531 43.507812 64.515625 43.457031 64.394531 C 43.40625 64.269531 43.332031 64.164062 43.238281 64.066406 C 43.144531 63.972656 43.039062 63.902344 42.914062 63.851562 C 42.792969 63.800781 42.664062 63.773438 42.53125 63.773438 Z M 42.53125 63.773438 " fill-opacity="1" fill-rule="nonzero" />
	<path fill="#ffffff" d="M 40.527344 67.78125 L 34.519531 67.78125 C 34.386719 67.78125 34.257812 67.808594 34.132812 67.859375 C 34.011719 67.910156 33.902344 67.980469 33.808594 68.074219 C 33.714844 68.167969 33.644531 68.277344 33.59375 68.398438 C 33.542969 68.523438 33.515625 68.652344 33.515625 68.785156 C 33.515625 68.917969 33.542969 69.042969 33.59375 69.167969 C 33.644531 69.289062 33.714844 69.398438 33.808594 69.492188 C 33.902344 69.585938 34.011719 69.65625 34.132812 69.707031 C 34.257812 69.757812 34.386719 69.785156 34.519531 69.785156 L 40.527344 69.785156 C 40.660156 69.785156 40.789062 69.757812 40.910156 69.707031 C 41.035156 69.65625 41.140625 69.585938 41.238281 69.492188 C 41.332031 69.398438 41.402344 69.289062 41.453125 69.167969 C 41.503906 69.042969 41.53125 68.917969 41.53125 68.785156 C 41.53125 68.652344 41.503906 68.523438 41.453125 68.398438 C 41.402344 68.277344 41.332031 68.167969 41.238281 68.074219 C 41.140625 67.980469 41.035156 67.910156 40.910156 67.859375 C 40.789062 67.808594 40.660156 67.78125 40.527344 67.78125 Z M 40.527344 67.78125 " fill-opacity="1" fill-rule="nonzero" />
	<g clip-path="url(#f5c1773a17)">
		<path fill="#ffffff" d="M 37.523438 11.683594 C 37.65625 11.683594 37.785156 11.660156 37.90625 11.609375 C 38.027344 11.558594 38.136719 11.484375 38.230469 11.390625 C 38.324219 11.296875 38.398438 11.191406 38.449219 11.066406 C 38.5 10.945312 38.523438 10.816406 38.523438 10.683594 L 38.523438 6.675781 C 38.523438 6.542969 38.5 6.417969 38.449219 6.292969 C 38.398438 6.171875 38.324219 6.0625 38.230469 5.96875 C 38.136719 5.875 38.027344 5.800781 37.90625 5.75 C 37.785156 5.699219 37.65625 5.675781 37.523438 5.675781 C 37.390625 5.675781 37.261719 5.699219 37.140625 5.75 C 37.015625 5.800781 36.910156 5.875 36.816406 5.96875 C 36.722656 6.0625 36.648438 6.171875 36.597656 6.292969 C 36.546875 6.417969 36.519531 6.542969 36.519531 6.675781 L 36.519531 10.683594 C 36.519531 10.816406 36.546875 10.945312 36.597656 11.066406 C 36.648438 11.191406 36.722656 11.296875 36.816406 11.390625 C 36.910156 11.484375 37.015625 11.558594 37.140625 11.609375 C 37.261719 11.660156 37.390625 11.683594 37.523438 11.683594 Z M 37.523438 11.683594 " fill-opacity="1" fill-rule="nonzero" />
	</g>
	<path fill="#ffffff" d="M 45.953125 13.453125 C 46.078125 13.503906 46.207031 13.527344 46.339844 13.527344 C 46.472656 13.527344 46.597656 13.503906 46.722656 13.453125 C 46.84375 13.402344 46.953125 13.328125 47.046875 13.234375 C 47.140625 13.140625 47.210938 13.03125 47.265625 12.910156 L 48.886719 8.996094 C 48.9375 8.871094 48.964844 8.742188 48.964844 8.609375 C 48.964844 8.476562 48.941406 8.347656 48.890625 8.226562 C 48.839844 8.101562 48.765625 7.992188 48.671875 7.898438 C 48.578125 7.804688 48.46875 7.730469 48.347656 7.679688 C 48.222656 7.628906 48.09375 7.605469 47.960938 7.605469 C 47.828125 7.605469 47.699219 7.628906 47.578125 7.683594 C 47.453125 7.734375 47.347656 7.804688 47.253906 7.902344 C 47.160156 7.996094 47.085938 8.105469 47.035156 8.226562 L 45.414062 12.140625 C 45.363281 12.265625 45.335938 12.394531 45.335938 12.527344 C 45.335938 12.660156 45.363281 12.785156 45.414062 12.910156 C 45.464844 13.03125 45.535156 13.140625 45.628906 13.234375 C 45.722656 13.328125 45.832031 13.402344 45.953125 13.453125 Z M 45.953125 13.453125 " fill-opacity="1" fill-rule="nonzero" />
	<path fill="#ffffff" d="M 53.949219 18.367188 C 54.226562 18.371094 54.464844 18.269531 54.660156 18.074219 L 57.660156 15.0625 C 57.753906 14.96875 57.828125 14.859375 57.878906 14.738281 C 57.929688 14.617188 57.953125 14.488281 57.953125 14.355469 C 57.953125 14.222656 57.925781 14.09375 57.875 13.972656 C 57.824219 13.847656 57.753906 13.742188 57.660156 13.648438 C 57.5625 13.554688 57.457031 13.480469 57.332031 13.429688 C 57.210938 13.378906 57.082031 13.355469 56.949219 13.355469 C 56.816406 13.355469 56.691406 13.382812 56.566406 13.433594 C 56.445312 13.484375 56.335938 13.554688 56.242188 13.648438 L 53.238281 16.660156 C 53.097656 16.804688 53.007812 16.972656 52.96875 17.171875 C 52.925781 17.371094 52.945312 17.5625 53.023438 17.75 C 53.101562 17.9375 53.226562 18.089844 53.394531 18.199219 C 53.5625 18.3125 53.746094 18.367188 53.949219 18.367188 Z M 53.949219 18.367188 " fill-opacity="1" fill-rule="nonzero" />
	<g clip-path="url(#2ef8246533)">
		<path fill="#ffffff" d="M 63.988281 22.660156 C 63.9375 22.539062 63.863281 22.433594 63.769531 22.339844 C 63.675781 22.246094 63.566406 22.171875 63.445312 22.125 C 63.320312 22.074219 63.195312 22.046875 63.0625 22.050781 C 62.929688 22.050781 62.800781 22.074219 62.675781 22.128906 L 58.746094 23.785156 C 58.621094 23.835938 58.515625 23.910156 58.421875 24.003906 C 58.328125 24.097656 58.253906 24.207031 58.203125 24.328125 C 58.152344 24.453125 58.128906 24.582031 58.128906 24.714844 C 58.128906 24.847656 58.15625 24.976562 58.207031 25.097656 C 58.261719 25.21875 58.332031 25.328125 58.429688 25.421875 C 58.523438 25.515625 58.632812 25.585938 58.753906 25.636719 C 58.878906 25.6875 59.007812 25.710938 59.140625 25.710938 C 59.273438 25.710938 59.398438 25.683594 59.523438 25.632812 L 63.457031 23.972656 C 63.578125 23.921875 63.6875 23.847656 63.777344 23.753906 C 63.871094 23.660156 63.945312 23.550781 63.996094 23.429688 C 64.042969 23.304688 64.070312 23.179688 64.066406 23.042969 C 64.066406 22.910156 64.042969 22.785156 63.988281 22.660156 Z M 63.988281 22.660156 " fill-opacity="1" fill-rule="nonzero" />
	</g>
	<path fill="#ffffff" d="M 27.78125 12.910156 C 27.832031 13.03125 27.90625 13.140625 28 13.234375 C 28.09375 13.328125 28.203125 13.402344 28.324219 13.453125 C 28.449219 13.503906 28.574219 13.527344 28.707031 13.527344 C 28.839844 13.527344 28.96875 13.503906 29.09375 13.453125 C 29.214844 13.402344 29.324219 13.328125 29.417969 13.234375 C 29.511719 13.140625 29.582031 13.03125 29.632812 12.910156 C 29.683594 12.785156 29.710938 12.660156 29.710938 12.527344 C 29.710938 12.394531 29.683594 12.265625 29.632812 12.140625 L 28.011719 8.226562 C 27.960938 8.105469 27.886719 7.996094 27.792969 7.902344 C 27.699219 7.808594 27.589844 7.738281 27.46875 7.6875 C 27.34375 7.636719 27.21875 7.609375 27.085938 7.609375 C 26.953125 7.609375 26.824219 7.636719 26.699219 7.6875 C 26.578125 7.738281 26.46875 7.808594 26.375 7.902344 C 26.28125 7.996094 26.210938 8.105469 26.160156 8.226562 C 26.109375 8.351562 26.082031 8.480469 26.082031 8.613281 C 26.082031 8.746094 26.109375 8.871094 26.160156 8.996094 Z M 27.78125 12.910156 " fill-opacity="1" fill-rule="nonzero" />
	<path fill="#ffffff" d="M 21.097656 18.367188 C 21.300781 18.367188 21.484375 18.3125 21.652344 18.199219 C 21.820312 18.089844 21.945312 17.9375 22.023438 17.75 C 22.097656 17.5625 22.117188 17.371094 22.078125 17.171875 C 22.039062 16.972656 21.949219 16.804688 21.804688 16.660156 L 18.804688 13.648438 C 18.710938 13.554688 18.601562 13.480469 18.476562 13.429688 C 18.355469 13.378906 18.226562 13.351562 18.09375 13.351562 C 17.960938 13.351562 17.832031 13.378906 17.710938 13.429688 C 17.589844 13.480469 17.480469 13.550781 17.386719 13.644531 C 17.292969 13.738281 17.21875 13.847656 17.167969 13.96875 C 17.117188 14.09375 17.089844 14.222656 17.089844 14.355469 C 17.089844 14.488281 17.117188 14.613281 17.167969 14.738281 C 17.21875 14.859375 17.289062 14.96875 17.382812 15.0625 L 20.386719 18.074219 C 20.582031 18.269531 20.820312 18.371094 21.097656 18.367188 Z M 21.097656 18.367188 " fill-opacity="1" fill-rule="nonzero" />
	<g clip-path="url(#70f968181d)">
		<path fill="#ffffff" d="M 16.300781 23.785156 L 12.367188 22.128906 C 12.246094 22.078125 12.117188 22.050781 11.984375 22.050781 C 11.851562 22.050781 11.726562 22.074219 11.601562 22.125 C 11.480469 22.175781 11.371094 22.246094 11.277344 22.339844 C 11.183594 22.433594 11.109375 22.539062 11.058594 22.664062 C 11.007812 22.785156 10.980469 22.914062 10.980469 23.046875 C 10.980469 23.179688 11.003906 23.304688 11.054688 23.429688 C 11.101562 23.550781 11.175781 23.660156 11.269531 23.753906 C 11.359375 23.847656 11.46875 23.921875 11.589844 23.972656 L 15.523438 25.632812 C 15.644531 25.683594 15.773438 25.707031 15.90625 25.707031 C 16.039062 25.710938 16.167969 25.683594 16.289062 25.632812 C 16.414062 25.585938 16.519531 25.511719 16.613281 25.417969 C 16.710938 25.324219 16.78125 25.21875 16.832031 25.097656 C 16.886719 24.972656 16.910156 24.847656 16.914062 24.714844 C 16.914062 24.582031 16.886719 24.453125 16.839844 24.328125 C 16.789062 24.207031 16.71875 24.097656 16.625 24.003906 C 16.53125 23.910156 16.421875 23.835938 16.300781 23.785156 Z M 16.300781 23.785156 " fill-opacity="1" fill-rule="nonzero" />
	</g>
	<path fill="#ffffff" d="M 54.847656 32.964844 C 55.484375 26.617188 52.679688 22.539062 50.21875 20.238281 C 45.667969 15.984375 38.269531 14.539062 31.808594 16.640625 C 30.90625 16.917969 30.03125 17.265625 29.183594 17.679688 C 28.335938 18.09375 27.523438 18.574219 26.75 19.113281 C 25.976562 19.65625 25.25 20.253906 24.570312 20.910156 C 23.886719 21.566406 23.261719 22.269531 22.691406 23.019531 C 22.121094 23.773438 21.613281 24.566406 21.164062 25.398438 C 20.71875 26.230469 20.335938 27.089844 20.023438 27.980469 C 19.710938 28.871094 19.46875 29.78125 19.300781 30.710938 C 19.128906 31.640625 19.03125 32.578125 19.003906 33.519531 C 18.925781 36.398438 19.53125 39.128906 20.820312 41.703125 C 21.960938 43.914062 23.265625 46.023438 24.734375 48.03125 C 26.476562 50.546875 28.277344 53.152344 28.695312 56.03125 C 28.832031 57.125 28.902344 58.226562 28.917969 59.332031 C 28.902344 60.019531 29.136719 60.609375 29.613281 61.101562 C 30.070312 61.554688 30.617188 61.777344 31.257812 61.769531 L 43.972656 61.769531 C 44.296875 61.773438 44.605469 61.710938 44.902344 61.585938 C 45.203125 61.464844 45.464844 61.289062 45.691406 61.058594 C 45.917969 60.832031 46.09375 60.566406 46.214844 60.269531 C 46.335938 59.96875 46.394531 59.660156 46.390625 59.335938 C 46.390625 58.597656 46.4375 57.859375 46.53125 57.128906 C 46.578125 56.933594 46.570312 56.746094 46.503906 56.558594 C 46.4375 56.371094 46.328125 56.21875 46.171875 56.09375 C 46.011719 55.972656 45.835938 55.90625 45.636719 55.890625 C 45.441406 55.875 45.253906 55.914062 45.082031 56.007812 C 44.675781 56.226562 44.40625 56.371094 44.386719 59.324219 C 44.394531 59.445312 44.359375 59.546875 44.277344 59.636719 C 44.195312 59.722656 44.09375 59.769531 43.972656 59.769531 L 39.027344 59.769531 L 39.027344 45.015625 C 39.480469 44.917969 39.882812 44.722656 40.238281 44.421875 C 40.59375 44.121094 40.855469 43.753906 41.027344 43.320312 C 41.375 43.480469 41.746094 43.558594 42.128906 43.558594 C 42.90625 43.550781 43.570312 43.273438 44.121094 42.726562 L 44.671875 42.171875 C 45.226562 41.621094 45.503906 40.957031 45.507812 40.175781 C 45.511719 39.792969 45.429688 39.425781 45.273438 39.074219 C 45.808594 38.863281 46.238281 38.519531 46.5625 38.042969 C 46.882812 37.566406 47.042969 37.039062 47.039062 36.460938 L 47.039062 35.683594 C 47.042969 35.109375 46.882812 34.582031 46.5625 34.105469 C 46.238281 33.625 45.808594 33.28125 45.273438 33.070312 C 45.453125 32.667969 45.53125 32.246094 45.503906 31.804688 C 45.460938 31.089844 45.183594 30.476562 44.671875 29.972656 L 44.121094 29.421875 C 43.574219 28.871094 42.910156 28.59375 42.128906 28.589844 C 41.746094 28.585938 41.375 28.667969 41.027344 28.824219 C 40.816406 28.289062 40.472656 27.859375 39.992188 27.535156 C 39.515625 27.210938 38.988281 27.054688 38.414062 27.058594 L 37.632812 27.058594 C 37.058594 27.054688 36.53125 27.210938 36.054688 27.535156 C 35.578125 27.859375 35.234375 28.289062 35.023438 28.824219 C 34.671875 28.667969 34.304688 28.585938 33.917969 28.589844 C 33.140625 28.59375 32.476562 28.871094 31.925781 29.421875 L 31.375 29.972656 C 30.964844 30.378906 30.703125 30.863281 30.59375 31.429688 C 30.484375 31.996094 30.546875 32.542969 30.777344 33.070312 C 30.238281 33.28125 29.808594 33.625 29.488281 34.101562 C 29.164062 34.582031 29.003906 35.109375 29.007812 35.683594 L 29.007812 36.460938 C 29.003906 37.039062 29.164062 37.566406 29.488281 38.042969 C 29.808594 38.519531 30.238281 38.867188 30.777344 39.074219 C 30.546875 39.605469 30.484375 40.152344 30.59375 40.714844 C 30.703125 41.28125 30.964844 41.765625 31.371094 42.171875 L 31.921875 42.722656 C 32.472656 43.273438 33.136719 43.550781 33.917969 43.558594 C 34.304688 43.558594 34.671875 43.480469 35.023438 43.320312 C 35.191406 43.753906 35.453125 44.121094 35.808594 44.421875 C 36.164062 44.71875 36.566406 44.917969 37.023438 45.015625 L 37.023438 59.769531 L 31.257812 59.769531 C 31.171875 59.773438 31.097656 59.75 31.035156 59.6875 C 30.949219 59.589844 30.914062 59.472656 30.921875 59.34375 C 30.90625 58.136719 30.828125 56.9375 30.679688 55.746094 C 30.191406 52.398438 28.167969 49.472656 26.382812 46.890625 C 24.851562 44.679688 23.292969 42.453125 22.242188 39.964844 C 21.355469 37.9375 20.941406 35.816406 21.007812 33.601562 C 21.304688 26.402344 25.574219 20.773438 32.429688 18.542969 C 38.214844 16.664062 44.816406 17.929688 48.847656 21.703125 C 51.953125 24.601562 53.300781 28.324219 52.859375 32.714844 C 52.839844 32.847656 52.429688 35.945312 55.824219 40.4375 C 55.835938 40.453125 55.855469 40.476562 55.867188 40.492188 C 55.894531 40.523438 55.917969 40.558594 55.941406 40.589844 L 55.046875 40.925781 C 54.542969 41.074219 54.117188 41.347656 53.773438 41.746094 C 53.410156 42.214844 53.105469 43.023438 53.714844 44.210938 C 53.523438 44.34375 53.332031 44.472656 53.144531 44.597656 C 52.871094 44.78125 52.714844 45.035156 52.675781 45.359375 C 52.617188 45.714844 52.703125 46.035156 52.933594 46.3125 C 53 46.390625 53.066406 46.46875 53.128906 46.550781 C 52.910156 46.621094 52.714844 46.730469 52.539062 46.875 C 52.363281 47.019531 52.214844 47.191406 52.101562 47.390625 C 51.988281 47.589844 51.914062 47.800781 51.882812 48.027344 C 51.847656 48.253906 51.851562 48.476562 51.902344 48.699219 C 51.90625 48.726562 51.910156 48.753906 51.917969 48.78125 C 52.003906 49.136719 52.078125 49.519531 52.136719 49.917969 C 52.269531 50.40625 52.246094 50.886719 52.066406 51.363281 C 51.878906 51.65625 51.324219 51.828125 50.523438 51.8125 C 50.214844 51.808594 49.898438 51.792969 49.574219 51.773438 C 48.371094 51.703125 47.007812 51.625 45.773438 52.257812 C 45.65625 52.320312 45.554688 52.398438 45.46875 52.5 C 45.382812 52.601562 45.320312 52.714844 45.28125 52.84375 C 45.238281 52.96875 45.222656 53.097656 45.234375 53.230469 C 45.246094 53.363281 45.28125 53.488281 45.34375 53.605469 C 45.402344 53.722656 45.484375 53.824219 45.585938 53.910156 C 45.6875 53.996094 45.800781 54.0625 45.925781 54.101562 C 46.054688 54.140625 46.183594 54.15625 46.3125 54.144531 C 46.445312 54.136719 46.570312 54.101562 46.691406 54.039062 C 47.4375 53.65625 48.417969 53.710938 49.457031 53.773438 C 49.816406 53.792969 50.167969 53.8125 50.503906 53.816406 C 52.050781 53.832031 53.15625 53.371094 53.75 52.453125 C 54.238281 51.550781 54.363281 50.601562 54.117188 49.609375 C 54.054688 49.195312 53.976562 48.796875 53.890625 48.421875 C 53.980469 48.417969 54.066406 48.402344 54.152344 48.378906 C 54.679688 48.238281 55.054688 47.921875 55.277344 47.425781 C 55.472656 46.953125 55.445312 46.492188 55.199219 46.042969 C 55.144531 45.941406 55.085938 45.84375 55.023438 45.746094 L 55.066406 45.71875 C 55.378906 45.609375 55.609375 45.40625 55.757812 45.113281 C 56.105469 44.429688 55.71875 43.707031 55.53125 43.359375 L 55.507812 43.3125 C 55.453125 43.203125 55.402344 43.089844 55.359375 42.972656 C 55.484375 42.90625 55.613281 42.847656 55.746094 42.804688 L 56.976562 42.34375 C 57.003906 42.332031 57.03125 42.320312 57.058594 42.308594 C 57.582031 42.074219 57.90625 41.679688 58.027344 41.117188 C 58.105469 40.386719 57.898438 39.75 57.402344 39.203125 C 54.589844 35.46875 54.839844 33.019531 54.847656 32.964844 Z M 35.082031 40.667969 L 34.382812 41.367188 C 34.253906 41.496094 34.097656 41.558594 33.917969 41.554688 C 33.691406 41.550781 33.5 41.46875 33.339844 41.308594 L 32.789062 40.757812 C 32.640625 40.621094 32.558594 40.453125 32.542969 40.25 C 32.53125 40.046875 32.59375 39.867188 32.726562 39.714844 L 33.433594 39.011719 C 33.082031 38.464844 32.835938 37.875 32.699219 37.242188 L 31.703125 37.242188 C 31.5 37.230469 31.332031 37.148438 31.199219 36.996094 C 31.0625 36.84375 31 36.664062 31.011719 36.460938 L 31.011719 35.683594 C 31 35.480469 31.0625 35.304688 31.199219 35.152344 C 31.332031 35 31.5 34.917969 31.703125 34.902344 L 32.699219 34.902344 C 32.835938 34.269531 33.082031 33.679688 33.433594 33.132812 L 32.726562 32.433594 C 32.59375 32.277344 32.53125 32.101562 32.542969 31.898438 C 32.558594 31.695312 32.640625 31.527344 32.789062 31.390625 L 33.339844 30.839844 C 33.5 30.679688 33.691406 30.59375 33.917969 30.59375 C 34.097656 30.589844 34.253906 30.652344 34.382812 30.777344 L 35.082031 31.480469 C 35.628906 31.128906 36.21875 30.886719 36.855469 30.746094 L 36.855469 29.753906 C 36.867188 29.550781 36.949219 29.382812 37.101562 29.246094 C 37.253906 29.113281 37.429688 29.050781 37.632812 29.0625 L 38.414062 29.0625 C 38.617188 29.050781 38.792969 29.113281 38.945312 29.246094 C 39.097656 29.382812 39.179688 29.550781 39.191406 29.753906 L 39.191406 30.746094 C 39.828125 30.886719 40.417969 31.128906 40.964844 31.480469 L 41.667969 30.777344 C 41.796875 30.652344 41.949219 30.589844 42.128906 30.59375 C 42.355469 30.59375 42.546875 30.679688 42.707031 30.839844 L 43.257812 31.390625 C 43.410156 31.523438 43.492188 31.695312 43.503906 31.898438 C 43.515625 32.101562 43.453125 32.28125 43.320312 32.433594 L 42.617188 33.132812 C 42.96875 33.679688 43.210938 34.269531 43.351562 34.902344 L 44.34375 34.902344 C 44.546875 34.917969 44.714844 35 44.851562 35.152344 C 44.984375 35.304688 45.046875 35.480469 45.035156 35.683594 L 45.035156 36.460938 C 45.046875 36.664062 44.984375 36.84375 44.851562 36.996094 C 44.714844 37.148438 44.546875 37.230469 44.34375 37.242188 L 43.351562 37.242188 C 43.210938 37.875 42.96875 38.464844 42.617188 39.011719 L 43.320312 39.714844 C 43.453125 39.867188 43.515625 40.046875 43.503906 40.25 C 43.492188 40.453125 43.410156 40.621094 43.257812 40.757812 L 42.707031 41.308594 C 42.546875 41.46875 42.355469 41.550781 42.128906 41.554688 C 41.949219 41.558594 41.796875 41.496094 41.667969 41.367188 L 40.964844 40.667969 C 40.417969 41.015625 39.828125 41.261719 39.191406 41.398438 L 39.191406 42.390625 C 39.179688 42.59375 39.097656 42.765625 38.945312 42.898438 C 38.792969 43.035156 38.617188 43.097656 38.414062 43.085938 L 37.632812 43.085938 C 37.429688 43.097656 37.253906 43.035156 37.101562 42.898438 C 36.949219 42.765625 36.867188 42.59375 36.855469 42.390625 L 36.855469 41.398438 C 36.222656 41.261719 35.628906 41.015625 35.082031 40.667969 Z M 35.082031 40.667969 " fill-opacity="1" fill-rule="nonzero" />
	<path fill="#ffffff" d="M 41.53125 36.074219 C 41.53125 35.609375 41.441406 35.160156 41.261719 34.730469 C 41.085938 34.300781 40.832031 33.921875 40.503906 33.59375 C 40.175781 33.265625 39.792969 33.011719 39.363281 32.835938 C 38.9375 32.65625 38.488281 32.566406 38.023438 32.566406 C 37.558594 32.566406 37.113281 32.65625 36.683594 32.835938 C 36.253906 33.011719 35.875 33.265625 35.542969 33.59375 C 35.214844 33.921875 34.960938 34.300781 34.785156 34.730469 C 34.605469 35.160156 34.519531 35.609375 34.519531 36.074219 C 34.519531 36.539062 34.605469 36.984375 34.785156 37.414062 C 34.960938 37.84375 35.214844 38.222656 35.542969 38.550781 C 35.875 38.882812 36.253906 39.132812 36.683594 39.3125 C 37.113281 39.492188 37.558594 39.578125 38.023438 39.578125 C 38.488281 39.578125 38.9375 39.488281 39.363281 39.3125 C 39.792969 39.132812 40.171875 38.878906 40.503906 38.550781 C 40.832031 38.222656 41.085938 37.84375 41.261719 37.414062 C 41.441406 36.984375 41.53125 36.539062 41.53125 36.074219 Z M 36.519531 36.074219 C 36.519531 35.875 36.558594 35.683594 36.636719 35.496094 C 36.710938 35.3125 36.820312 35.152344 36.960938 35.011719 C 37.101562 34.871094 37.265625 34.761719 37.449219 34.683594 C 37.632812 34.609375 37.824219 34.570312 38.023438 34.570312 C 38.222656 34.570312 38.414062 34.609375 38.597656 34.683594 C 38.78125 34.761719 38.945312 34.871094 39.085938 35.011719 C 39.226562 35.152344 39.335938 35.3125 39.414062 35.5 C 39.488281 35.683594 39.527344 35.875 39.527344 36.074219 C 39.527344 36.273438 39.488281 36.464844 39.410156 36.648438 C 39.335938 36.832031 39.226562 36.996094 39.085938 37.136719 C 38.945312 37.277344 38.78125 37.386719 38.597656 37.460938 C 38.414062 37.539062 38.222656 37.574219 38.023438 37.574219 C 37.824219 37.574219 37.632812 37.539062 37.449219 37.460938 C 37.265625 37.382812 37.101562 37.277344 36.960938 37.136719 C 36.820312 36.996094 36.710938 36.832031 36.636719 36.648438 C 36.558594 36.464844 36.519531 36.273438 36.519531 36.074219 Z M 36.519531 36.074219 " fill-opacity="1" fill-rule="nonzero" />
</svg>