<svg xmlns="http://www.w3.org/2000/svg" xmlns:xlink="http://www.w3.org/1999/xlink" width="100" zoomAndPan="magnify" viewBox="0 0 75 74.999997" height="100" preserveAspectRatio="xMidYMid meet" version="1.0">
	<defs>
		<clipPath id="8bd9c7c8a7">
			<path d="M 3.945312 3.75 L 8.863281 3.75 L 8.863281 7.5 L 3.945312 7.5 Z M 3.945312 3.75 " clip-rule="nonzero" />
		</clipPath>
		<clipPath id="61b9e9a616">
			<path d="M 12 58 L 29 58 L 29 63.609375 L 12 63.609375 Z M 12 58 " clip-rule="nonzero" />
		</clipPath>
		<clipPath id="383e325fda">
			<path d="M 3.945312 46 L 15 46 L 15 63.609375 L 3.945312 63.609375 Z M 3.945312 46 " clip-rule="nonzero" />
		</clipPath>
		<clipPath id="e5712315af">
			<path d="M 46 58 L 63 58 L 63 63.609375 L 46 63.609375 Z M 46 58 " clip-rule="nonzero" />
		</clipPath>
		<clipPath id="b47ca8a889">
			<path d="M 60 46 L 70.695312 46 L 70.695312 63.609375 L 60 63.609375 Z M 60 46 " clip-rule="nonzero" />
		</clipPath>
		<clipPath id="ad488ffcc6">
			<path d="M 36 11.109375 L 39 11.109375 L 39 17 L 36 17 Z M 36 11.109375 " clip-rule="nonzero" />
		</clipPath>
	</defs>
	<rect x="-7.5" width="90" fill="#ffffff" y="-7.5" height="89.999996" fill-opacity="1" />
	<rect x="-7.5" width="90" fill="#ffbe0b" y="-7.5" height="89.999996" fill-opacity="1" />
	<g clip-path="url(#8bd9c7c8a7)">
		<path fill="#ffbe0b" d="M 3.945312 3.75 L 8.867188 3.75 L 8.867188 7.5 L 3.945312 7.5 Z M 3.945312 3.75 " fill-opacity="1" fill-rule="nonzero" />
	</g>
	<path fill="#ffffff" d="M 27.203125 53.492188 L 20.761719 53.492188 C 20.183594 53.492188 19.714844 53.023438 19.714844 52.445312 C 19.714844 51.867188 20.183594 51.398438 20.761719 51.398438 L 27.203125 51.398438 C 27.539062 51.398438 27.824219 51.113281 27.824219 50.777344 C 27.824219 50.4375 27.539062 50.152344 27.203125 50.152344 L 20.761719 50.152344 C 20.40625 50.152344 20.074219 49.972656 19.882812 49.671875 C 19.691406 49.371094 19.664062 48.996094 19.8125 48.671875 C 20.46875 47.226562 21.949219 42.773438 20.167969 41.316406 C 19.847656 41.054688 19.664062 41.007812 19.613281 41.023438 C 19.136719 41.140625 18.398438 42.867188 17.957031 43.898438 C 17.003906 46.121094 15.925781 48.644531 13.710938 49.191406 C 13.152344 49.332031 12.582031 48.988281 12.441406 48.425781 C 12.304688 47.863281 12.648438 47.296875 13.207031 47.160156 C 14.410156 46.863281 15.273438 44.851562 16.03125 43.074219 C 16.886719 41.078125 17.621094 39.355469 19.113281 38.992188 C 19.886719 38.800781 20.691406 39.039062 21.492188 39.695312 C 23.992188 41.742188 23.0625 45.824219 22.296875 48.058594 L 27.203125 48.0625 C 28.699219 48.0625 29.917969 49.277344 29.917969 50.777344 C 29.917969 52.273438 28.699219 53.492188 27.203125 53.492188 Z M 27.203125 53.492188 " fill-opacity="1" fill-rule="evenodd" />
	<path fill="#ffffff" d="M 26.8125 56.832031 L 20.375 56.832031 C 19.796875 56.832031 19.328125 56.363281 19.328125 55.785156 C 19.328125 55.207031 19.796875 54.738281 20.375 54.738281 L 26.8125 54.738281 C 27.152344 54.738281 27.4375 54.453125 27.4375 54.117188 C 27.4375 53.777344 27.152344 53.492188 26.8125 53.492188 C 26.234375 53.492188 25.765625 53.023438 25.765625 52.445312 C 25.765625 51.867188 26.234375 51.398438 26.8125 51.398438 C 28.3125 51.398438 29.53125 52.617188 29.53125 54.113281 C 29.53125 55.613281 28.3125 56.832031 26.8125 56.832031 Z M 26.8125 56.832031 " fill-opacity="1" fill-rule="evenodd" />
	<path fill="#ffffff" d="M 26.335938 60.171875 L 19.898438 60.171875 C 19.320312 60.171875 18.851562 59.703125 18.851562 59.121094 C 18.851562 58.542969 19.320312 58.074219 19.898438 58.074219 L 26.335938 58.074219 C 26.675781 58.074219 26.960938 57.792969 26.960938 57.453125 C 26.960938 57.117188 26.675781 56.832031 26.335938 56.832031 C 25.757812 56.832031 25.289062 56.363281 25.289062 55.785156 C 25.289062 55.207031 25.757812 54.738281 26.335938 54.738281 C 27.835938 54.738281 29.054688 55.957031 29.054688 57.453125 C 29.054688 58.949219 27.835938 60.171875 26.335938 60.171875 Z M 26.335938 60.171875 " fill-opacity="1" fill-rule="evenodd" />
	<g clip-path="url(#61b9e9a616)">
		<path fill="#ffffff" d="M 25.59375 63.507812 L 15.964844 63.507812 C 15.886719 63.507812 14.535156 63.480469 13.207031 63.148438 C 12.644531 63.011719 12.304688 62.441406 12.445312 61.882812 C 12.582031 61.320312 13.152344 60.976562 13.710938 61.117188 C 14.804688 61.386719 15.972656 61.414062 15.984375 61.414062 L 25.59375 61.414062 C 25.929688 61.414062 26.214844 61.128906 26.214844 60.792969 C 26.214844 60.457031 25.929688 60.171875 25.59375 60.171875 C 25.011719 60.171875 24.546875 59.703125 24.546875 59.125 C 24.546875 58.542969 25.011719 58.078125 25.59375 58.078125 C 27.089844 58.078125 28.308594 59.292969 28.308594 60.792969 C 28.308594 62.289062 27.089844 63.507812 25.59375 63.507812 Z M 25.59375 63.507812 " fill-opacity="1" fill-rule="evenodd" />
	</g>
	<g clip-path="url(#383e325fda)">
		<path fill="#ffffff" d="M 13.460938 63.886719 L 4.992188 63.886719 C 4.414062 63.886719 3.945312 63.417969 3.945312 62.839844 L 3.945312 47.101562 C 3.945312 46.523438 4.414062 46.054688 4.992188 46.054688 L 13.460938 46.054688 C 14.039062 46.054688 14.507812 46.523438 14.507812 47.101562 L 14.507812 62.839844 C 14.507812 63.417969 14.039062 63.886719 13.460938 63.886719 Z M 6.042969 61.792969 L 12.414062 61.792969 L 12.414062 48.148438 L 6.042969 48.148438 Z M 6.042969 61.792969 " fill-opacity="1" fill-rule="evenodd" />
	</g>
	<path fill="#ffffff" d="M 54.148438 53.492188 L 47.710938 53.492188 C 46.210938 53.492188 44.996094 52.273438 44.996094 50.777344 C 44.996094 49.277344 46.210938 48.0625 47.710938 48.0625 L 52.613281 48.0625 C 51.847656 45.824219 50.921875 41.742188 53.417969 39.695312 C 54.222656 39.039062 55.023438 38.800781 55.796875 38.992188 C 57.289062 39.355469 58.027344 41.078125 58.878906 43.074219 C 59.640625 44.851562 60.5 46.863281 61.703125 47.160156 C 62.265625 47.296875 62.605469 47.867188 62.46875 48.425781 C 62.328125 48.988281 61.757812 49.332031 61.203125 49.191406 C 58.984375 48.644531 57.90625 46.121094 56.953125 43.898438 C 56.515625 42.867188 55.777344 41.140625 55.300781 41.023438 C 55.246094 41.007812 55.0625 41.054688 54.746094 41.316406 C 52.964844 42.773438 54.441406 47.226562 55.101562 48.671875 C 55.25 48.996094 55.222656 49.375 55.03125 49.671875 C 54.835938 49.972656 54.503906 50.152344 54.148438 50.152344 L 47.710938 50.152344 C 47.371094 50.152344 47.085938 50.4375 47.085938 50.777344 C 47.085938 51.113281 47.371094 51.398438 47.710938 51.398438 L 54.148438 51.398438 C 54.726562 51.398438 55.195312 51.867188 55.195312 52.445312 C 55.195312 53.023438 54.726562 53.492188 54.148438 53.492188 Z M 54.148438 53.492188 " fill-opacity="1" fill-rule="evenodd" />
	<path fill="#ffffff" d="M 54.535156 56.832031 L 48.097656 56.832031 C 46.601562 56.832031 45.382812 55.613281 45.382812 54.117188 C 45.382812 52.617188 46.601562 51.398438 48.097656 51.398438 C 48.675781 51.398438 49.144531 51.867188 49.144531 52.445312 C 49.144531 53.023438 48.675781 53.492188 48.097656 53.492188 C 47.761719 53.492188 47.476562 53.777344 47.476562 54.117188 C 47.476562 54.453125 47.761719 54.738281 48.097656 54.738281 L 54.535156 54.738281 C 55.117188 54.738281 55.585938 55.207031 55.585938 55.785156 C 55.585938 56.363281 55.117188 56.832031 54.535156 56.832031 Z M 54.535156 56.832031 " fill-opacity="1" fill-rule="evenodd" />
	<path fill="#ffffff" d="M 55.015625 60.171875 L 48.574219 60.171875 C 47.078125 60.171875 45.859375 58.953125 45.859375 57.453125 C 45.859375 55.957031 47.078125 54.738281 48.574219 54.738281 C 49.152344 54.738281 49.621094 55.207031 49.621094 55.785156 C 49.621094 56.363281 49.152344 56.832031 48.574219 56.832031 C 48.238281 56.832031 47.953125 57.117188 47.953125 57.453125 C 47.953125 57.792969 48.238281 58.078125 48.574219 58.078125 L 55.015625 58.078125 C 55.59375 58.078125 56.0625 58.546875 56.0625 59.125 C 56.0625 59.703125 55.59375 60.171875 55.015625 60.171875 Z M 55.015625 60.171875 " fill-opacity="1" fill-rule="evenodd" />
	<g clip-path="url(#e5712315af)">
		<path fill="#ffffff" d="M 55.757812 63.507812 L 49.320312 63.507812 C 47.824219 63.507812 46.605469 62.289062 46.605469 60.792969 C 46.605469 59.296875 47.824219 58.078125 49.320312 58.078125 C 49.898438 58.078125 50.367188 58.546875 50.367188 59.125 C 50.367188 59.703125 49.898438 60.171875 49.320312 60.171875 C 48.984375 60.171875 48.699219 60.457031 48.699219 60.792969 C 48.699219 61.132812 48.984375 61.414062 49.320312 61.414062 L 58.949219 61.414062 C 58.941406 61.414062 60.109375 61.390625 61.199219 61.117188 C 61.761719 60.976562 62.328125 61.320312 62.46875 61.882812 C 62.609375 62.445312 62.265625 63.011719 61.707031 63.152344 C 60.378906 63.480469 59.023438 63.507812 58.96875 63.507812 Z M 55.757812 63.507812 " fill-opacity="1" fill-rule="evenodd" />
	</g>
	<g clip-path="url(#b47ca8a889)">
		<path fill="#ffffff" d="M 69.917969 63.886719 L 61.453125 63.886719 C 60.875 63.886719 60.40625 63.417969 60.40625 62.839844 L 60.40625 47.101562 C 60.40625 46.523438 60.875 46.054688 61.453125 46.054688 L 69.917969 46.054688 C 70.496094 46.054688 70.964844 46.523438 70.964844 47.101562 L 70.964844 62.839844 C 70.964844 63.417969 70.496094 63.886719 69.917969 63.886719 Z M 62.5 61.792969 L 68.871094 61.792969 L 68.871094 48.148438 L 62.5 48.148438 Z M 62.5 61.792969 " fill-opacity="1" fill-rule="evenodd" />
	</g>
	<path fill="#ffffff" d="M 37.457031 45.328125 C 30.304688 45.328125 24.484375 39.511719 24.484375 32.359375 C 24.484375 25.207031 30.304688 19.386719 37.457031 19.386719 C 44.609375 19.386719 50.425781 25.207031 50.425781 32.359375 C 50.425781 39.511719 44.609375 45.328125 37.457031 45.328125 Z M 37.457031 21.480469 C 31.457031 21.480469 26.578125 26.359375 26.578125 32.359375 C 26.578125 38.355469 31.457031 43.234375 37.457031 43.234375 C 43.453125 43.234375 48.332031 38.355469 48.332031 32.359375 C 48.332031 26.359375 43.453125 21.480469 37.457031 21.480469 Z M 37.457031 21.480469 " fill-opacity="1" fill-rule="evenodd" />
	<path fill="#ffffff" d="M 35.53125 37.101562 C 35.265625 37.101562 34.996094 37 34.792969 36.792969 L 31.246094 33.25 C 30.835938 32.839844 30.835938 32.179688 31.246094 31.769531 C 31.65625 31.359375 32.320312 31.359375 32.726562 31.769531 L 35.53125 34.574219 L 42.183594 27.921875 C 42.59375 27.511719 43.257812 27.511719 43.664062 27.921875 C 44.074219 28.328125 44.074219 28.992188 43.664062 29.402344 L 36.273438 36.792969 C 36.066406 37 35.800781 37.101562 35.53125 37.101562 Z M 35.53125 37.101562 " fill-opacity="1" fill-rule="evenodd" />
	<g clip-path="url(#ad488ffcc6)">
		<path fill="#ffffff" d="M 37.742188 16.066406 C 37.164062 16.066406 36.695312 15.597656 36.695312 15.019531 L 36.695312 12.160156 C 36.695312 11.582031 37.164062 11.113281 37.742188 11.113281 C 38.320312 11.113281 38.789062 11.582031 38.789062 12.160156 L 38.789062 15.019531 C 38.789062 15.597656 38.320312 16.066406 37.742188 16.066406 Z M 37.742188 16.066406 " fill-opacity="1" fill-rule="evenodd" />
	</g>
	<path fill="#ffffff" d="M 46.371094 18.535156 C 46.195312 18.535156 46.015625 18.488281 45.847656 18.394531 C 45.347656 18.105469 45.175781 17.464844 45.464844 16.964844 L 46.894531 14.484375 C 47.183594 13.984375 47.824219 13.8125 48.328125 14.101562 C 48.828125 14.390625 49 15.03125 48.710938 15.53125 L 47.28125 18.011719 C 47.085938 18.347656 46.734375 18.535156 46.371094 18.535156 Z M 46.371094 18.535156 " fill-opacity="1" fill-rule="evenodd" />
	<path fill="#ffffff" d="M 52.613281 24.984375 C 52.253906 24.984375 51.898438 24.796875 51.707031 24.460938 C 51.417969 23.960938 51.589844 23.320312 52.089844 23.03125 L 54.566406 21.597656 C 55.070312 21.308594 55.710938 21.480469 56 21.980469 C 56.289062 22.484375 56.117188 23.125 55.617188 23.414062 L 53.136719 24.84375 C 52.972656 24.9375 52.792969 24.984375 52.613281 24.984375 Z M 52.613281 24.984375 " fill-opacity="1" fill-rule="evenodd" />
	<path fill="#ffffff" d="M 57.65625 33.691406 L 54.792969 33.691406 C 54.214844 33.691406 53.746094 33.222656 53.746094 32.644531 C 53.746094 32.066406 54.214844 31.597656 54.792969 31.597656 L 57.65625 31.597656 C 58.234375 31.597656 58.703125 32.066406 58.703125 32.644531 C 58.703125 33.222656 58.234375 33.691406 57.65625 33.691406 Z M 57.65625 33.691406 " fill-opacity="1" fill-rule="evenodd" />
	<path fill="#ffffff" d="M 20.117188 33.117188 L 17.257812 33.117188 C 16.679688 33.117188 16.210938 32.648438 16.210938 32.070312 C 16.210938 31.492188 16.679688 31.023438 17.257812 31.023438 L 20.117188 31.023438 C 20.699219 31.023438 21.167969 31.492188 21.167969 32.070312 C 21.167969 32.648438 20.699219 33.117188 20.117188 33.117188 Z M 20.117188 33.117188 " fill-opacity="1" fill-rule="evenodd" />
	<path fill="#ffffff" d="M 22.582031 24.488281 C 22.40625 24.488281 22.226562 24.445312 22.0625 24.347656 L 19.582031 22.917969 C 19.082031 22.628906 18.910156 21.988281 19.199219 21.488281 C 19.488281 20.984375 20.128906 20.816406 20.628906 21.105469 L 23.109375 22.535156 C 23.609375 22.824219 23.78125 23.464844 23.492188 23.964844 C 23.296875 24.300781 22.945312 24.488281 22.582031 24.488281 Z M 22.582031 24.488281 " fill-opacity="1" fill-rule="evenodd" />
	<path fill="#ffffff" d="M 29.035156 18.246094 C 28.675781 18.246094 28.324219 18.058594 28.128906 17.722656 L 26.699219 15.246094 C 26.410156 14.746094 26.582031 14.105469 27.082031 13.816406 C 27.582031 13.527344 28.222656 13.699219 28.511719 14.199219 L 29.945312 16.675781 C 30.234375 17.179688 30.0625 17.820312 29.558594 18.109375 C 29.394531 18.203125 29.214844 18.246094 29.035156 18.246094 Z M 29.035156 18.246094 " fill-opacity="1" fill-rule="evenodd" />
</svg>