<svg xmlns="http://www.w3.org/2000/svg" xmlns:xlink="http://www.w3.org/1999/xlink" width="100" zoomAndPan="magnify" viewBox="0 0 75 74.999997" height="100" preserveAspectRatio="xMidYMid meet" version="1.0">
	<defs>
		<clipPath id="ef715c8728">
			<path d="M 3.945312 3.75 L 8.863281 3.75 L 8.863281 7.5 L 3.945312 7.5 Z M 3.945312 3.75 " clip-rule="nonzero" />
		</clipPath>
		<clipPath id="205923167b">
			<path d="M 5.289062 3.636719 L 69.789062 3.636719 L 69.789062 71.136719 L 5.289062 71.136719 Z M 5.289062 3.636719 " clip-rule="nonzero" />
		</clipPath>
	</defs>
	<rect x="-7.5" width="90" fill="#ffffff" y="-7.5" height="89.999996" fill-opacity="1" />
	<rect x="-7.5" width="90" fill="#3f2cf0" y="-7.5" height="89.999996" fill-opacity="1" />
	<g clip-path="url(#ef715c8728)">
		<path fill="#3f2cf0" d="M 3.945312 3.75 L 8.867188 3.75 L 8.867188 7.5 L 3.945312 7.5 Z M 3.945312 3.75 " fill-opacity="1" fill-rule="nonzero" />
	</g>
	<g clip-path="url(#205923167b)">
		<path fill="#ffffff" d="M 21.148438 12.441406 L 10.140625 12.441406 C 9.554688 12.441406 9.082031 11.96875 9.082031 11.382812 C 9.082031 10.796875 9.554688 10.324219 10.140625 10.324219 L 21.148438 10.324219 C 21.734375 10.324219 22.207031 10.796875 22.207031 11.382812 C 22.207031 11.96875 21.734375 12.441406 21.148438 12.441406 Z M 14.238281 19.109375 L 7.808594 19.109375 C 6.421875 19.109375 5.292969 17.980469 5.292969 16.59375 L 5.292969 6.171875 C 5.292969 4.785156 6.421875 3.65625 7.808594 3.65625 L 23.480469 3.65625 C 24.867188 3.65625 25.996094 4.785156 25.996094 6.171875 L 25.996094 16.59375 C 25.996094 17.980469 24.867188 19.109375 23.480469 19.109375 L 21.152344 19.109375 L 21.152344 21.757812 C 21.152344 22.523438 20.691406 23.203125 19.976562 23.484375 C 19.753906 23.574219 19.515625 23.617188 19.285156 23.617188 C 18.78125 23.617188 18.292969 23.414062 17.933594 23.03125 Z M 7.808594 16.992188 L 14.347656 16.992188 C 14.863281 16.992188 15.34375 17.199219 15.699219 17.570312 L 19.035156 21.113281 L 19.035156 18.851562 C 19.035156 17.828125 19.867188 16.992188 20.894531 16.992188 L 23.480469 16.992188 C 23.695312 16.992188 23.878906 16.8125 23.878906 16.59375 L 23.878906 6.171875 C 23.878906 5.957031 23.695312 5.773438 23.480469 5.773438 L 7.808594 5.773438 C 7.59375 5.773438 7.410156 5.957031 7.410156 6.171875 L 7.410156 16.59375 C 7.410156 16.808594 7.59375 16.992188 7.808594 16.992188 Z M 21.148438 13.777344 L 15.644531 13.777344 C 15.058594 13.777344 14.585938 14.25 14.585938 14.835938 C 14.585938 15.421875 15.058594 15.894531 15.644531 15.894531 L 21.148438 15.894531 C 21.734375 15.894531 22.207031 15.421875 22.207031 14.835938 C 22.207031 14.25 21.734375 13.777344 21.148438 13.777344 Z M 10.140625 8.988281 L 21.148438 8.988281 C 21.734375 8.988281 22.207031 8.515625 22.207031 7.929688 C 22.207031 7.34375 21.734375 6.871094 21.148438 6.871094 L 10.140625 6.871094 C 9.554688 6.871094 9.082031 7.34375 9.082031 7.929688 C 9.082031 8.515625 9.554688 8.988281 10.140625 8.988281 Z M 69.714844 6.171875 L 69.714844 16.59375 C 69.714844 17.980469 68.585938 19.109375 67.199219 19.109375 L 60.769531 19.109375 L 57.074219 23.03125 C 56.714844 23.414062 56.226562 23.617188 55.722656 23.617188 C 55.492188 23.617188 55.257812 23.574219 55.035156 23.488281 C 54.316406 23.203125 53.855469 22.523438 53.855469 21.757812 L 53.855469 19.109375 L 51.527344 19.109375 C 50.140625 19.109375 49.011719 17.980469 49.011719 16.59375 L 49.011719 6.171875 C 49.011719 4.785156 50.140625 3.65625 51.527344 3.65625 L 67.199219 3.65625 C 68.585938 3.65625 69.714844 4.785156 69.714844 6.171875 Z M 67.597656 6.171875 C 67.597656 5.957031 67.414062 5.773438 67.199219 5.773438 L 51.527344 5.773438 C 51.3125 5.773438 51.128906 5.957031 51.128906 6.171875 L 51.128906 16.59375 C 51.128906 16.808594 51.3125 16.992188 51.527344 16.992188 L 54.113281 16.992188 C 55.140625 16.992188 55.972656 17.828125 55.972656 18.851562 L 55.972656 21.109375 L 59.304688 17.574219 C 59.667969 17.195312 60.144531 16.992188 60.660156 16.992188 L 67.199219 16.992188 C 67.414062 16.992188 67.597656 16.808594 67.597656 16.589844 Z M 64.863281 10.324219 L 53.859375 10.324219 C 53.273438 10.324219 52.800781 10.796875 52.800781 11.382812 C 52.800781 11.96875 53.273438 12.441406 53.859375 12.441406 L 64.863281 12.441406 C 65.449219 12.441406 65.921875 11.96875 65.921875 11.382812 C 65.921875 10.796875 65.449219 10.324219 64.863281 10.324219 Z M 59.363281 13.777344 L 53.859375 13.777344 C 53.273438 13.777344 52.800781 14.25 52.800781 14.835938 C 52.800781 15.421875 53.273438 15.894531 53.859375 15.894531 L 59.363281 15.894531 C 59.949219 15.894531 60.421875 15.421875 60.421875 14.835938 C 60.421875 14.25 59.949219 13.777344 59.363281 13.777344 Z M 64.863281 6.871094 L 53.859375 6.871094 C 53.273438 6.871094 52.800781 7.34375 52.800781 7.929688 C 52.800781 8.515625 53.273438 8.988281 53.859375 8.988281 L 64.863281 8.988281 C 65.449219 8.988281 65.921875 8.515625 65.921875 7.929688 C 65.921875 7.34375 65.449219 6.871094 64.863281 6.871094 Z M 52.492188 25.613281 C 54.804688 29.617188 55.417969 34.28125 54.222656 38.746094 C 53.027344 43.210938 50.160156 46.941406 46.15625 49.253906 C 43.492188 50.796875 40.53125 51.582031 37.53125 51.582031 C 36.027344 51.582031 34.515625 51.382812 33.023438 50.984375 C 32.648438 50.882812 32.277344 50.769531 31.914062 50.644531 L 29.472656 54.875 C 30.417969 55.457031 30.734375 56.6875 30.179688 57.648438 L 23.8125 68.671875 C 23.101562 69.90625 21.949219 70.789062 20.566406 71.160156 C 20.101562 71.28125 19.632812 71.34375 19.164062 71.34375 C 18.242188 71.34375 17.332031 71.101562 16.511719 70.632812 C 15.277344 69.917969 14.394531 68.765625 14.027344 67.382812 C 13.65625 66 13.84375 64.558594 14.558594 63.328125 L 20.921875 52.300781 C 21.191406 51.832031 21.632812 51.492188 22.160156 51.347656 C 22.675781 51.207031 23.210938 51.273438 23.675781 51.527344 L 26.117188 47.296875 C 21.316406 43.085938 19.027344 36.363281 20.789062 29.792969 C 21.984375 25.324219 24.847656 21.589844 28.851562 19.28125 C 32.855469 16.96875 37.519531 16.355469 41.984375 17.550781 C 46.449219 18.746094 50.179688 21.609375 52.492188 25.613281 Z M 28.3125 56.644531 L 27.539062 56.199219 C 27.527344 56.191406 27.511719 56.1875 27.496094 56.175781 C 27.476562 56.167969 27.457031 56.152344 27.441406 56.140625 L 23.554688 53.898438 C 23.546875 53.894531 23.539062 53.890625 23.53125 53.886719 C 23.519531 53.878906 23.511719 53.871094 23.5 53.867188 L 22.722656 53.417969 L 16.390625 64.386719 C 15.960938 65.128906 15.847656 65.996094 16.070312 66.835938 C 16.292969 67.667969 16.824219 68.367188 17.566406 68.796875 C 18.3125 69.222656 19.179688 69.335938 20.019531 69.113281 C 20.855469 68.886719 21.550781 68.355469 21.976562 67.613281 Z M 29.9375 49.832031 C 29.191406 49.472656 28.480469 49.058594 27.808594 48.601562 L 25.507812 52.582031 L 27.640625 53.8125 Z M 50.65625 26.671875 C 48.628906 23.160156 45.355469 20.644531 41.4375 19.597656 C 40.128906 19.246094 38.796875 19.074219 37.476562 19.074219 C 34.847656 19.074219 32.25 19.761719 29.910156 21.113281 C 26.394531 23.140625 23.882812 26.417969 22.832031 30.339844 C 20.667969 38.425781 25.484375 46.769531 33.574219 48.9375 C 37.492188 49.992188 41.585938 49.449219 45.097656 47.421875 C 48.613281 45.390625 51.125 42.117188 52.179688 38.199219 C 53.226562 34.277344 52.6875 30.1875 50.65625 26.671875 Z M 50.742188 34.269531 C 50.742188 37.710938 49.421875 40.847656 47.261719 43.203125 C 47.214844 43.265625 47.164062 43.324219 47.105469 43.371094 C 44.691406 45.917969 41.28125 47.503906 37.503906 47.503906 C 33.722656 47.503906 30.308594 45.910156 27.894531 43.363281 C 27.84375 43.320312 27.792969 43.265625 27.75 43.207031 C 25.589844 40.851562 24.265625 37.710938 24.265625 34.269531 C 24.265625 26.96875 30.203125 21.03125 37.503906 21.03125 C 44.804688 21.03125 50.742188 26.96875 50.742188 34.269531 Z M 37.503906 45.386719 C 40.535156 45.386719 43.285156 44.167969 45.292969 42.199219 C 44.875 40.003906 43.285156 38.191406 41.164062 37.484375 C 40.132812 38.226562 38.867188 38.667969 37.503906 38.667969 C 36.140625 38.667969 34.875 38.226562 33.84375 37.484375 C 31.722656 38.191406 30.132812 40.007812 29.71875 42.199219 C 31.726562 44.167969 34.472656 45.386719 37.503906 45.386719 Z M 37.503906 36.546875 C 39.800781 36.546875 41.667969 34.679688 41.667969 32.382812 C 41.667969 30.085938 39.800781 28.21875 37.503906 28.21875 C 35.207031 28.21875 33.335938 30.085938 33.335938 32.382812 C 33.335938 34.679688 35.207031 36.546875 37.503906 36.546875 Z M 48.625 34.269531 C 48.625 28.136719 43.636719 23.148438 37.5 23.148438 C 31.371094 23.148438 26.382812 28.136719 26.382812 34.269531 C 26.382812 36.453125 27.015625 38.492188 28.109375 40.210938 C 28.894531 38.300781 30.378906 36.730469 32.261719 35.84375 C 31.601562 34.851562 31.21875 33.660156 31.21875 32.382812 C 31.21875 28.921875 34.035156 26.101562 37.5 26.101562 C 40.964844 26.101562 43.78125 28.917969 43.78125 32.382812 C 43.78125 33.660156 43.398438 34.847656 42.742188 35.839844 C 44.625 36.730469 46.109375 38.300781 46.894531 40.210938 C 47.988281 38.488281 48.625 36.453125 48.625 34.269531 Z M 48.625 34.269531 " fill-opacity="1" fill-rule="nonzero" />
	</g>
</svg>