<svg xmlns="http://www.w3.org/2000/svg" width="960" height="571.106" viewBox="0 0 960 571.106">
	<defs>
		<clipPath id="a">
			<path data-name="Rectangle 5173" fill="none" d="M0 0h774.061v571.106H0z" />
		</clipPath>
	</defs>
	<g data-name="Group 162400">
		<path data-name="Rectangle 5287" fill="rgba(255,255,255,0)" d="M0 0h960v571H0z" />
		<g data-name="Group 162489">
			<g data-name="Group 10311" transform="translate(109.938)" clip-path="url(#a)">
				<path data-name="Path 15839" d="M42.429 351.848c35.87 99.8 128.813 173.35 232.575 191.535 74.032 12.975 158.226-4.754 223.134-41.945 57.97-33.215 108.2-88.32 127.608-153.182 18.968-63.4-10.132-141.28-57.99-184.35-38.476-34.628-83.591-42.144-131.959-25.506-19.405 6.685-36.732 16.3-58.032 11.712-41.416-8.912-64.889-58.612-99.824-79.789C214.404 31.815 127.085 48.267 76.38 100.7c-58.847 60.839-61.447 169.894-35.588 246.45a249.09 249.09 0 001.637 4.7" fill="#ffbe0b" />
				<path data-name="Path 15840" d="M426.538 56.239A46.977 46.977 0 11379.56 9.264a46.979 46.979 0 0146.978 46.975" fill="#ea0553" />
				<path data-name="Path 15841" d="M715.499 571.106H203.464a1.774 1.774 0 110-3.548h512.035a1.774 1.774 0 110 3.548" />
				<path data-name="Rectangle 5169" fill="#fff" d="M1.775 18.926h183.084V569.33H1.775z" />
				<path data-name="Rectangle 5170" fill="#3f2cf0" d="M1.775 18.926h183.084V569.33H1.775z" />
				<path data-name="Path 15842" d="M184.859 571.106H1.775A1.774 1.774 0 010 569.331V18.929a1.774 1.774 0 011.775-1.778h183.084a1.773 1.773 0 011.773 1.775v550.4a1.773 1.773 0 01-1.773 1.775M3.548 567.558h179.533V20.705H3.548z" />
				<path data-name="Rectangle 5171" fill="#0c63ff" d="M184.856 187.577H367.94V569.33H184.856z" />
				<path data-name="Path 15843" d="M367.94 571.106H184.859a1.774 1.774 0 01-1.775-1.775V187.578a1.773 1.773 0 011.775-1.773H367.94a1.773 1.773 0 011.775 1.773v381.753a1.774 1.774 0 01-1.775 1.775m-181.308-3.548h179.533V189.353H186.632z" />
				<path data-name="Rectangle 5172" fill="#8338ec" d="M367.94 468.113h183.084v101.218H367.94z" />
				<path data-name="Path 15844" d="M551.024 571.102H367.94a1.776 1.776 0 01-1.775-1.775V468.112a1.777 1.777 0 011.775-1.775h183.084a1.777 1.777 0 011.775 1.775V569.33a1.776 1.776 0 01-1.775 1.775m-181.308-3.548h179.533V469.89H369.716z" />
				<path data-name="Path 15845" d="M254.61 157.986a1.775 1.775 0 01-3.028-1.258v-33.613a1.776 1.776 0 013.551 0l-.002 33.615a1.778 1.778 0 01-.52 1.255" />
				<path data-name="Path 15846" d="M271.417 141.179a1.774 1.774 0 01-1.255.52l-33.612-.001a1.776 1.776 0 010-3.551h33.613a1.775 1.775 0 011.256 3.03" />
				<path data-name="Path 15847" d="M554.516 191.675l-.575 55.324h120.423l20.173 20.8c112.6 2.364 78.94-65.655 46.342-112.1-30.172-42.989-38.455-68.303-110.334-66.361l-32.424-1.319c-35.081-1.029-46.068 5.688-61.939 21.882-9.043 9.234-25.441 11.219-25.51-8.21-.066-17.8 17.546-35.6 17.546-35.6l-33.497-31.246s-6.488 4.154-46.1 40.125c-70.4 63.927-30.765 144.952 105.9 116.7" fill="#fb5607" />
				<path data-name="Path 15848" d="M700.044 269.637q-2.721 0-5.542-.061a1.787 1.787 0 01-1.239-.536l-19.648-20.265H553.944a1.771 1.771 0 01-1.775-1.795l.553-53.128c-34.194 6.825-64.74 7.124-88.461.86-22.253-5.882-38.22-17.261-46.176-32.905-13.2-25.95-1.955-59.729 29.343-88.152 39.274-35.659 46.068-40.128 46.339-40.3a1.76 1.76 0 012.165.2l33.497 31.237a1.777 1.777 0 01.05 2.544c-.169.174-17.093 17.5-17.032 34.349.022 6.667 2.063 11.014 5.9 12.569 4.593 1.872 11.567-.481 16.576-5.594 15.71-16.034 27.084-23.472 63.255-22.413l32.385 1.314c65.03-1.734 79.214 19.189 102.684 53.861 2.873 4.242 5.846 8.633 9.092 13.26 28.884 41.157 37.921 70.55 27.621 89.863-8.882 16.661-32.391 25.093-69.911 25.093m-4.74-3.6c38.906.722 62.94-7.077 71.521-23.168 9.607-18.016.647-46.2-27.4-86.149-3.263-4.651-6.244-9.057-9.126-13.312-23.575-34.819-36.559-53.998-99.709-52.298-.119 0-32.546-1.319-32.546-1.319-34.921-1.012-45.28 5.722-60.6 21.349-6.07 6.2-14.477 8.827-20.444 6.4-3.678-1.5-8.072-5.456-8.111-15.848-.055-15.682 12.679-30.98 16.808-35.527l-31.119-29.022c-3.067 2.337-13.619 10.854-44.768 39.138-30.062 27.3-41.008 59.455-28.566 83.915 7.486 14.717 22.673 25.466 43.919 31.08 23.688 6.261 54.461 5.8 88.992-1.338a1.775 1.775 0 012.135 1.756l-.559 53.526h118.629a1.794 1.794 0 011.275.539z" />
				<path data-name="Path 15849" d="M693.018 568.258s0-30.781-9.623-30.781l-1.363-15.422h-68.5c-.213 0-1.579 15.422-1.579 15.422-8.4 0-9.621 30.781-9.621 30.781z" fill="#ffe2e2" />
				<path data-name="Path 15850" d="M683.397 537.476h-71.446c-8.407 0-9.621 30.781-9.621 30.781h90.688s0-30.781-9.623-30.781" />
				<path data-name="Path 15851" d="M693.019 570.037h-90.69a1.777 1.777 0 01-1.775-1.847c.2-5.1 1.59-29.31 9.748-32.2l1.244-14.09a1.775 1.775 0 011.77-1.618h68.717a1.772 1.772 0 011.767 1.618l1.242 14.029c9.258 2.6 9.753 27.184 9.753 32.333a1.777 1.777 0 01-1.775 1.775m-88.829-3.551h87.034c-.227-11.866-2.68-27.231-7.826-27.231a1.777 1.777 0 01-1.77-1.621l-1.22-13.8h-65.47l-1.22 13.8a1.777 1.777 0 01-1.77 1.621c-3.952 0-7.013 13.8-7.76 27.231" />
				<path data-name="Path 15852" d="M525.5 416.08l.791 50.321-108.449 1.712c-2.235.042-3.678-1.231-3.719-3.136-.595-28.353 40-28.049 40-28.049l2.7-19.817z" fill="#ffe2e2" />
				<path data-name="Path 15853" d="M417.722 469.885c-3.111 0-5.315-1.986-5.376-4.873a24.005 24.005 0 016.913-18.044c10.055-10.19 27.9-11.6 33.312-11.789l2.492-18.312a1.776 1.776 0 011.731-1.535l68.675-1.031a1.783 1.783 0 011.8 1.748l.794 50.321a1.775 1.775 0 01-1.748 1.8l-108.446 1.715h-.147m36.373-31.185c-.747 0-21.822.122-32.316 10.768a20.585 20.585 0 00-5.885 15.469c.028 1.25 1.244 1.4 1.911 1.4l106.682-1.684-.738-46.771-65.373.982-2.492 18.3a1.774 1.774 0 01-1.759 1.535h-.03" />
				<path data-name="Path 15854" d="M526.291 466.4l-108.45 1.709c-2.234.042-3.681-1.231-3.722-3.133-.592-28.356 40.007-28.052 40.007-28.052l.346-2.378h71.316z" />
				<path data-name="Path 15855" d="M454.144 282.355c.257-6.463 3.75-35.256 40.825-35.256 10.644 0 52.611-.1 52.611-.1h120.842c20.809 9.314 17.607 53.88 17.557 76.952-.111 50.805 4.557 203.1 4.557 203.1h-88.762l-7.243-181.37-6.582-.506-51.541-1.784-6.029 81.924h-89.353z" />
				<path data-name="Path 15856" d="M690.536 528.826h-88.763a1.775 1.775 0 01-1.773-1.7l-7.179-179.793-5.01-.386-49.763-1.723-5.9 80.22a1.775 1.775 0 01-1.77 1.645h-89.352a1.774 1.774 0 01-1.767-1.936l13.108-142.917c.263-6.28 3.559-36.912 42.6-36.912 10.644 0 52.605-.1 52.605-.1h120.85a1.781 1.781 0 01.727.155c19.642 8.791 19.073 45.927 18.7 70.5-.044 2.9-.086 5.611-.091 8.08-.113 50.194 4.51 201.518 4.555 203.039a1.772 1.772 0 01-1.773 1.831m-87.056-3.551h85.226c-.528-17.441-4.607-154.081-4.5-201.327.006-2.483.047-5.215.094-8.125.36-23.489.9-58.908-16.263-67.052H547.575c.006 0-41.964.1-52.611.1-35.889 0-38.828 27.95-39.052 33.552-.001.092-12.942 141.121-12.942 141.121h85.76l5.907-80.281a1.787 1.787 0 011.833-1.643l51.541 1.784 6.659.509a1.776 1.776 0 011.637 1.7z" />
				<path data-name="Path 15857" d="M554.52 193.456a1.782 1.782 0 01-1.775-1.809l1.261-66.217a1.745 1.745 0 011.806-1.742 1.78 1.78 0 011.745 1.809l-1.261 66.217a1.778 1.778 0 01-1.775 1.742" />
				<path data-name="Path 15858" d="M594.487 347.451a1.776 1.776 0 01-1.773-1.737l-1.472-66.987a1.772 1.772 0 011.737-1.811 1.736 1.736 0 011.814 1.734l1.466 66.988a1.775 1.775 0 01-1.734 1.814h-.041" fill="#fff" />
				<path data-name="Path 15859" d="M684.945 214.083a1.775 1.775 0 01-1.333-2.948c26.672-30.3 69.5-8.208 69.931-7.981a1.776 1.776 0 01-1.657 3.141c-.406-.213-40.792-21.006-65.608 7.184a1.773 1.773 0 01-1.333.6" />
				<path data-name="Path 15860" d="M682.705 209.007a1.776 1.776 0 01-1.775-1.775v-81.774a1.776 1.776 0 113.551 0v81.772a1.776 1.776 0 01-1.775 1.775" />
				<path data-name="Path 15861" d="M536.413 345.167a1.777 1.777 0 01-1.623-1.056l-13.141-29.645a1.776 1.776 0 013.247-1.438l13.138 29.645a1.774 1.774 0 01-.9 2.342 1.8 1.8 0 01-.719.152" fill="#fff" />
				<path data-name="Path 15862" d="M580.389 48.483a34.169 34.169 0 1027.7-39.594 34.167 34.167 0 00-27.7 39.594" />
				<path data-name="Path 15863" d="M639.109 93.118l-5-25.358c-17.405-.088-15.7-14.969-15.7-14.969-3.352-1.825-4.217-7.649-4.4-13.456-.268-8.75-10.091-13.962-17.225-8.888q-.481.34-.957.73a22.575 22.575 0 01-13.757 4.847c-.277 2.608-.34 3-.6 6.239-1.98 24.41-6.792 44.055 17.123 41.447l2.215 12.7z" fill="#ffe2e2" />
				<path data-name="Path 15864" d="M600.798 98.187a1.771 1.771 0 01-1.745-1.468l-1.936-11.095c-6.6.465-11.346-.827-14.488-3.927-6.114-6.037-4.972-17.95-3.648-31.744.243-2.536.5-5.157.711-7.834.213-2.613.3-3.39.465-4.947l.141-1.336c.138-1.142.938-6.817 3.542-8.752a1.775 1.775 0 012.115 2.851c-.9.666-1.825 3.794-2.129 6.3l-.138 1.316c-.166 1.526-.249 2.29-.456 4.856-.218 2.693-.473 5.332-.716 7.887-1.239 12.892-2.306 24.025 2.608 28.876 2.591 2.558 6.927 3.465 13.268 2.776a1.787 1.787 0 011.941 1.457l2.215 12.7a1.777 1.777 0 01-1.444 2.055 1.917 1.917 0 01-.307.025" />
				<path data-name="Path 15865" d="M639.107 94.302a1.773 1.773 0 01-1.737-1.424l-5-24.767a1.776 1.776 0 013.482-.7l5 24.767a1.774 1.774 0 01-1.388 2.091 1.709 1.709 0 01-.354.036" />
				<path data-name="Path 15866" d="M587.451 51.283a2.006 2.006 0 11-2.071-1.939 2.006 2.006 0 012.071 1.939" />
				<path data-name="Path 15867" d="M628.407 57.014a8.623 8.623 0 11-4.983-11.131 8.622 8.622 0 014.983 11.131" fill="#ffe2e2" />
				<path data-name="Path 15868" d="M618.319 56.596a1.775 1.775 0 01-.984-3.252l4.524-3.006a1.775 1.775 0 111.966 2.956l-4.524 3.006a1.787 1.787 0 01-.982.3" />
				<path data-name="Path 15869" d="M603.881 51.732a2 2 0 11-2.063-1.93 2 2 0 012.063 1.93" />
				<path data-name="Path 15870" d="M598.585 85.483a1.774 1.774 0 01-.113-3.545c3.329-.213 11.31-2.24 11.39-2.259a1.773 1.773 0 11.877 3.435c-.34.088-8.385 2.132-12.038 2.367h-.116" />
				<path data-name="Path 15871" d="M601.127 93.531s7.3 3.316 10.03-3.877a12.364 12.364 0 00.387-8.479l-12.959 2.536z" />
				<path data-name="Path 15872" d="M589.636 63.627a1.808 1.808 0 01-1.773-1.925l1.156-13.664a1.775 1.775 0 113.537.3l-1.152 13.659a1.777 1.777 0 01-1.768 1.63" />
				<path data-name="Path 15873" d="M592.073 68.072a1.775 1.775 0 01-.21-3.537c1.427-.171 2.356-1.958 2.367-1.977a1.774 1.774 0 013.191 1.551c-.069.144-1.742 3.542-5.135 3.949a1.875 1.875 0 01-.213.014" />
				<path data-name="Path 15874" d="M491.8 65.644a22.628 22.628 0 0032.894 3.119 24.094 24.094 0 012.9-2.32 19.524 19.524 0 0112.629-3.006c4.657.346 8.539-1.579 12.92-2.749 5.658-1.51 8.678-.44 12.69 3.946 1.023 1.117 1.62 2.508 2.929 3.382 5.268 3.512 12.071-.42 13.431-6.139 1.825-7.663-3.877-13.44-9.706-17.615 15.013-.841 27.089-.777 27.773-7.439.661-6.479-6.51-6.479-6.51-6.479 2.284-2.2 7.171-6.985 5.608-11.227-3.114-8.454-7.032-6.089-7.032-6.089 4.867-5.108-2.917-15.3-20.5-8.4 0 0-.669-5.484-12.981-1.267-12.093 4.14-33.76 16.451-41.207 19.631-3.255 1.391-10.362 4.806-17.864 8.476a22.635 22.635 0 00-7.972 34.172" fill="#ffe2e2" />
				<path data-name="Path 15875" d="M509.778 76.219c-.783 0-1.573-.039-2.367-.113a24.407 24.407 0 01-8.421-46.226c9.057-4.43 15.093-7.3 17.95-8.515 2.61-1.114 7.1-3.421 12.289-6.092 9.427-4.853 21.163-10.89 29.042-13.586 5.962-2.041 10.34-2.229 13.011-.556a5.255 5.255 0 011.423 1.28c11.576-4.054 18.8-.943 21.523 3.114a6.99 6.99 0 011.084 5.724c2.317.824 4.237 3.263 5.71 7.254s-1.24 7.998-3.717 10.746a7.8 7.8 0 013.053 2.013 7.168 7.168 0 011.664 5.739c-.763 7.444-11.294 8.091-24.731 8.783 3.858 3.437 8.385 9.1 6.623 16.5a11.783 11.783 0 01-7.077 8.105 9.725 9.725 0 01-9.065-.9 9.273 9.273 0 01-2.386-2.536 12.051 12.051 0 00-.866-1.123c-3.667-4-6.015-4.74-10.923-3.432-1.125.3-2.245.664-3.338 1.015-3.153 1.018-6.418 2.063-10.171 1.789a17.8 17.8 0 00-11.612 2.774 20.649 20.649 0 00-2.6 2.116 24.116 24.116 0 01-16.094 6.123M566.64 3.542a22.971 22.971 0 00-7.218 1.5c-7.635 2.611-19.244 8.584-28.569 13.382-5.254 2.7-9.789 5.036-12.519 6.2-2.8 1.195-8.78 4.035-17.784 8.437a20.857 20.857 0 1022.969 34.368 21.855 21.855 0 013.186-2.528 21.43 21.43 0 0113.65-3.238c3.07.23 5.863-.675 8.819-1.629 1.131-.362 2.3-.741 3.512-1.065 6.147-1.643 9.936-.473 14.457 4.466a14.644 14.644 0 011.137 1.457 6.244 6.244 0 001.468 1.643 6.118 6.118 0 005.793.55 8.31 8.31 0 004.928-5.622c1.286-5.423-1.573-10.434-9.018-15.763a1.776 1.776 0 01.935-3.216c1.408-.077 2.793-.149 4.143-.218 11.537-.592 21.5-1.1 21.963-5.628a3.692 3.692 0 00-.758-2.992 6.1 6.1 0 00-3.993-1.532 1.776 1.776 0 01-1.225-3.05c1.739-1.679 6.358-6.134 5.177-9.339-1.394-3.783-2.788-4.826-3.5-5.11a1.286 1.286 0 00-1.015-.036 1.746 1.746 0 01-2.273-.426 1.8 1.8 0 01.133-2.353 3.265 3.265 0 00.243-4.3c-1.7-2.528-7.569-5.63-18.807-1.22a1.77 1.77 0 01-2.409-1.438 1.715 1.715 0 00-.788-.777 5.425 5.425 0 00-2.638-.528" />
				<path data-name="Path 15876" d="M572.483 46.038a1.776 1.776 0 01-1.764-1.593c-.011-.119-.943-8.138-7.4-12.793-4.812-3.471-11.509-4.3-19.911-2.453a1.775 1.775 0 01-.76-3.468c9.449-2.074 17.118-1.043 22.787 3.07 7.762 5.625 8.777 14.891 8.816 15.284a1.775 1.775 0 01-1.587 1.944 1.806 1.806 0 01-.18.008" />
				<path data-name="Path 15877" d="M561.98 30.538a1.776 1.776 0 01-.818-3.355l30.344-15.732a1.776 1.776 0 011.634 3.153l-30.344 15.735a1.767 1.767 0 01-.816.2" />
				<path data-name="Path 15878" d="M572.486 41.123a1.776 1.776 0 01-.694-3.41l21.263-9a1.775 1.775 0 011.385 3.269l-21.263 9a1.808 1.808 0 01-.691.141" />
				<path data-name="Path 15879" d="M559.887 21.642a1.774 1.774 0 01-.9-3.3c.053-.03 1.352-.794 6.015-3.169 3.058-1.554 5.1-3.531 5.744-5.561a5.257 5.257 0 00-.484-4.154 1.775 1.775 0 013.144-1.648 8.8 8.8 0 01.722 6.88c-.949 2.984-3.548 5.628-7.514 7.646-4.516 2.3-5.813 3.056-5.827 3.061a1.724 1.724 0 01-.9.246" />
				<path data-name="Path 15881" d="M726.162 228.145a28.151 28.151 0 00-36.622-15.489l-1.872.758s-2.569-13.207-12.43-16.562a103.034 103.034 0 00-31.351-4.8c-8.094.213-23.569-.371-23.212 9.438.357 9.864 32.676 7.729 32.676 7.729s-14.579 1.922-20.389 2.364c-9.538.727-15.306 3.4-14.515 10.7.9 8.354 21.443 6.114 33.458 4.073-10.951 2.483-28.356 7.768-26.818 16.056 1.272 6.844 11.214 5.89 19.535 3.8-3.465 2.008-6.037 4.961-4.718 9.2 3.191 10.251 33.115-1.565 33.115-1.565s.459 12.917 14.651 13.946c4.112.3 10.143-.268 16.639-1.225a28.117 28.117 0 0021.855-38.43" fill="#ffe2e2" />
				<path data-name="Path 15882" d="M690.067 269.656q-1.377 0-2.525-.083c-11.681-.846-15-9.123-15.934-13.288-5.979 2.179-22.145 7.458-29.625 3.88a6.834 6.834 0 01-3.772-4.22 8.215 8.215 0 01.661-6.772c-5.467.758-9.554.293-12.19-1.4a7.345 7.345 0 01-3.338-5.033c-1-5.4 3.99-9.571 11.056-12.74-6.33.136-11.946-.595-15.024-2.923a6.491 6.491 0 01-2.693-4.6 9.721 9.721 0 011.98-7.552c2.2-2.652 6.081-4.231 12.121-4.92-3.979-.763-7.514-1.98-9.626-3.885a6.339 6.339 0 01-2.254-4.568 8.473 8.473 0 012.3-6.369c4.35-4.588 13.736-4.751 20.585-4.87.725-.014 1.413-.025 2.057-.041a104.558 104.558 0 0131.97 4.9c8.335 2.834 11.863 11.75 13.075 15.837a29.934 29.934 0 0137.172 42.639 29.575 29.575 0 01-21.492 14.687 104.674 104.674 0 01-14.5 1.322m-17.046-17.577a1.776 1.776 0 011.773 1.712c.019.456.628 11.344 13.005 12.24 3.576.26 9.04-.147 16.252-1.208a26.342 26.342 0 0020.469-36.008 26.408 26.408 0 00-34.313-14.51l-1.869.755a1.779 1.779 0 01-2.414-1.305c-.025-.122-2.508-12.248-11.261-15.223a102.051 102.051 0 00-30.731-4.709c-.653.017-1.352.03-2.088.044-5.874.1-14.748.254-18.074 3.764a4.963 4.963 0 00-1.325 3.794 2.835 2.835 0 001.084 2.06c5.008 4.524 23.141 4.389 29.7 3.96a1.775 1.775 0 01.348 3.531c-.6.077-14.692 1.936-20.483 2.375-6.117.467-9.947 1.726-11.711 3.847a6.248 6.248 0 00-1.175 4.9 2.981 2.981 0 001.3 2.149c3.761 2.843 14.726 2.976 30.093.365a1.775 1.775 0 01.691 3.482c-16.863 3.822-26.384 9.057-25.466 14a3.821 3.821 0 001.764 2.693c2.619 1.679 8.158 1.576 15.594-.29a1.775 1.775 0 011.322 3.258c-4.66 2.7-4.466 5.368-3.913 7.137a3.33 3.33 0 001.916 2.071c6.228 2.984 22.939-2.422 28.851-4.759a1.777 1.777 0 01.653-.124" />
				<path data-name="Path 15883" d="M690.398 238.853a1.775 1.775 0 01-1.762-1.571l-2.726-23.666a1.775 1.775 0 013.526-.407l2.727 23.666a1.775 1.775 0 01-1.56 1.966 1.722 1.722 0 01-.2.011" />
				<path data-name="Path 15884" d="M644.623 247.992a1.774 1.774 0 01-.473-3.484l23.716-6.576a1.775 1.775 0 11.946 3.421l-23.713 6.573a1.763 1.763 0 01-.476.066" />
				<path data-name="Path 15885" d="M651.907 228.134a1.774 1.774 0 01-.409-3.5l13.437-3.18a1.775 1.775 0 11.816 3.454l-13.437 3.18a1.733 1.733 0 01-.406.047" />
				<path data-name="Path 15886" d="M653.351 210.985a1.774 1.774 0 01-.113-3.545l8.083-.534a1.775 1.775 0 01.235 3.542l-8.086.534h-.119" />
			</g>
			<g data-name="Group 162396">
				<path data-name="Path 16598" d="M375.678 504.439H108.031a29.536 29.536 0 01-29.451-29.448V298.025a29.536 29.536 0 0129.451-29.448h267.647a29.535 29.535 0 0129.448 29.448v176.966a29.535 29.535 0 01-29.448 29.448" fill="#fff" />
				<path data-name="Path 16601" d="M375.675 506.013H108.026a31.059 31.059 0 01-31.025-31.025V298.025A31.059 31.059 0 01108.026 267h267.649a31.059 31.059 0 0131.025 31.025v176.963a31.059 31.059 0 01-31.025 31.025M108.026 270.151a27.9 27.9 0 00-27.875 27.874v176.963a27.9 27.9 0 0027.875 27.874h267.649a27.9 27.9 0 0027.874-27.874V298.025a27.9 27.9 0 00-27.874-27.874z" />
				<path data-name="Path 16602" d="M405.127 321.726H80.062a1.575 1.575 0 010-3.151h325.065a1.575 1.575 0 010 3.151" />
				<path data-name="Path 16603" d="M329.522 479.221H187.264a1.575 1.575 0 010-3.151h142.258a1.575 1.575 0 010 3.151" />
				<g data-name="Group 162395">
					<path data-name="Rectangle 5296" fill="#fb5607" d="M168.118 373.218h30.848v76.415h-30.848z" />
					<path data-name="Rectangle 5297" fill="#73c0ae" d="M226.52 340.328h30.848v109.305H226.52z" />
					<path data-name="Rectangle 5298" fill="#ffbe0b" d="M109.713 411.283h30.848v38.35h-30.848z" />
				</g>
				<path data-name="Path 18131" d="M378.354 306.729a1.572 1.572 0 01-1.113-.461l-21.268-21.267a1.575 1.575 0 012.225-2.229l21.268 21.268a1.575 1.575 0 01-1.112 2.689" fill="#33384d" />
				<path data-name="Path 18132" d="M357.085 306.729a1.575 1.575 0 01-1.113-2.69l21.269-21.267a1.575 1.575 0 012.225 2.229l-21.268 21.268a1.572 1.572 0 01-1.113.46" />
				<path data-name="Path 18133" d="M347.439 341.901h-67.661a1.575 1.575 0 010-3.151h67.661a1.575 1.575 0 010 3.151" />
				<path data-name="Path 18134" d="M347.44 358.315h-21.686a1.575 1.575 0 010-3.151h21.686a1.575 1.575 0 010 3.151" />
				<path data-name="Path 18135" d="M310.55 358.315h-30.768a1.575 1.575 0 010-3.151h30.768a1.575 1.575 0 010 3.151" />
				<path data-name="Path 18136" d="M308.822 374.732h-29.04a1.575 1.575 0 110-3.151h29.04a1.575 1.575 0 010 3.151" />
			</g>
		</g>
	</g>
	<path data-name="Path 18859" d="M396.465 55.776a3.834 3.834 0 015.141 1.27 3.724 3.724 0 11-6.371 3.857 3.651 3.651 0 011.23-5.127" />
	<path data-name="Path 18860" d="M323.4 72.703a3.753 3.753 0 012.67 7.016 3.7 3.7 0 01-4.815-2.194 3.678 3.678 0 012.145-4.822" />
	<path data-name="Path 18861" d="M371.545 22.673a7.425 7.425 0 015.467-.246 6.95 6.95 0 014.057 3.5 7.406 7.406 0 01.459 5.327 7.3 7.3 0 01-3.4 4.269 6.844 6.844 0 01-5.453.572 7.09 7.09 0 01-4.316-3.7 7.551 7.551 0 01-.466-5.659 6.758 6.758 0 013.658-4.07" />
</svg>