<svg xmlns="http://www.w3.org/2000/svg" width="960" height="695" viewBox="0 0 960 695">
	<defs>
		<clipPath id="a">
			<path data-name="Rectangle 5168" fill="none" d="M0 0h744.394v628.333H0z" />
		</clipPath>
	</defs>
	<g data-name="Group 10442">
		<path data-name="Rectangle 5285" fill="none" d="M0 0h960v695H0z" />
		<g data-name="Group 10309">
			<g data-name="Group 10308" clip-path="url(#a)" transform="translate(108 33)">
				<path data-name="Path 15785" d="M250.016 488.588C108.299 392.417 30.31 176.409 206.8 61.088c35.629-23.279 92.31-32.805 134.736-26.273 49.524 7.624 79.594 41.634 119.493 67.539 58.268 37.833 127.814 7.783 186.516 47.308 49.2 33.125 90.632 86.817 95.752 144.48 8.513 95.961-32.487 188.025-124.436 229.083-41.293 18.439-107.479 20.831-150.219 24.772-67.622 6.239-163.549-22.033-218.626-59.409" fill="#ffbe0b" />
				<path data-name="Path 15786" d="M321.536 210.324a55.047 55.047 0 11-55.048-55.045 55.049 55.049 0 0155.048 55.045" />
				<path data-name="Path 15787" d="M381.914 546.515l-192.509-6.809c-33.986 11.111-46.205 49.627-50.733 86.815h257.366z" />
				<path data-name="Path 15788" d="M396.038 628.333H138.672a1.811 1.811 0 01-1.8-2.031c6.085-49.988 23.085-78.876 51.968-88.319a2.071 2.071 0 01.63-.089l192.509 6.809a1.814 1.814 0 011.722 1.5l14.121 80.006a1.812 1.812 0 01-1.784 2.128m-255.311-3.63h253.148l-13.489-76.43-190.718-6.744c-26.838 8.937-42.858 36.162-48.938 83.175" />
				<path data-name="Path 15789" d="M592.389 455.083c2.23-96.486-.323-218.056.3-197.6l-107.911-2.646s4.447 102.122-16.941 112.127c-18.054 8.442-39.5-18.1-56.606-35.554-30-30.618-50.773-43.316-117.1-41.373 0 0-37.545-6.884-113.319 7.371-110.653 20.825-134.9 122.363-166.363 188.761-45.939 96.943 40.295 164.81 135.567 85.2v11.742l238.857-1.033-16.459-102.1c76.124 113.985 216.475 126.693 219.975-24.895" fill="#3f2cf0" />
				<path data-name="Path 15790" d="M68.338 608.214c-16.276 0-31.169-4.727-42.818-13.739-28.624-22.152-33.612-64.97-12.709-109.082 4.851-10.239 9.489-21.221 14.4-32.845 13.123-31.067 28-66.277 51.12-95.359 26.631-33.5 60.047-53.638 102.152-61.561 72.422-13.629 110.685-7.915 113.779-7.409 67.644-1.956 88.9 11.958 118.264 41.922 2.155 2.2 4.377 4.538 6.653 6.935 15.6 16.44 33.289 35.076 47.889 28.245 16.645-7.786 17.121-82.335 15.9-110.405a1.809 1.809 0 011.856-1.891l105.983 2.6c.121-1.722.5-2.2 1.757-2.228s1.673.595 1.827 1.94c.07.667.089 1.321.113 2.093a1.8 1.8 0 01-.086.6c.019 1.953.054 4.837.094 8.251.339 28.829 1.367 116.561-.3 188.845-1.38 59.756-24.008 99.02-63.713 110.564-24.107 7-53.108 2.685-81.66-12.165-27.486-14.293-52.718-36.991-73.353-65.906l15.184 94.175a1.812 1.812 0 01-1.784 2.1l-238.857 1.033a1.713 1.713 0 01-1.286-.527 1.821 1.821 0 01-.535-1.286v-7.915c-22.4 18.033-45.775 29.135-67.794 32.173a88.592 88.592 0 01-12.071.842M266.887 290.22c-18.8 0-47.41 1.759-85.733 8.972-92.58 17.419-123.4 90.387-150.6 154.765-4.926 11.665-9.58 22.679-14.466 32.988C-4.057 529.456.517 570.539 27.739 591.604c30.034 23.246 77.576 14.753 121.115-21.63a1.816 1.816 0 012.978 1.391v9.927l234.916-1.014-16.123-100a1.813 1.813 0 013.3-1.3c21.086 31.573 47.569 56.24 76.584 71.332 27.72 14.417 55.766 18.641 78.975 11.9 38.059-11.062 59.756-49.121 61.1-107.164l1.813.043-1.813-.043c1.671-72.22.64-159.906.3-188.719-.035-2.892-.062-5.27-.081-7.073l-104.133-2.56c.64 16.93 2.8 102.154-18.062 111.912-16.973 7.939-35.614-11.705-52.059-29.033-2.263-2.384-4.471-4.711-6.61-6.9-29.286-29.886-49.086-42.786-115.748-40.83-.56-.062-9.569-1.628-27.3-1.628" />
				<path data-name="Path 15791" d="M274.592 342.201c-49.251 0-94.552-43.023-95.031-43.485a1.812 1.812 0 112.513-2.612c.5.479 50.4 47.854 101.377 41.968 50.437-5.811 58.64-44.257 58.965-45.89a1.813 1.813 0 013.557.7c-.083.425-8.961 42.67-62.1 48.8a81.533 81.533 0 01-9.276.525" fill="none" />
				<path data-name="Path 15792" d="M366.261 112.439a1.809 1.809 0 01-1.28.531h-35.573a1.813 1.813 0 010-3.625h35.573a1.812 1.812 0 011.281 3.095" />
				<path data-name="Path 15793" d="M348.477 130.223a1.812 1.812 0 01-3.094-1.28V93.37a1.813 1.813 0 113.626 0l-.002 35.574a1.809 1.809 0 01-.53 1.28" />
				<path data-name="Path 15794" d="M368.971 460.395a1.813 1.813 0 01-1.041-3.3 45.04 45.04 0 00-8.593-78.561 1.814 1.814 0 011.385-3.352 48.669 48.669 0 019.287 84.886 1.815 1.815 0 01-1.038.326" />
				<path data-name="Path 15795" d="M360.035 378.683a1.814 1.814 0 01-1.813-1.813l-.005-21.611a1.813 1.813 0 013.626 0l.005 21.611a1.814 1.814 0 01-1.813 1.813" />
				<path data-name="Path 15796" d="M376.569 507.574a1.817 1.817 0 01-1.789-1.525l-7.605-47.191a1.814 1.814 0 113.581-.576l7.608 47.192a1.811 1.811 0 01-1.5 2.077 1.761 1.761 0 01-.29.024" />
				<path data-name="Path 15797" d="M279.555 136.859a46.761 46.761 0 11-46.762-46.762 46.761 46.761 0 0146.762 46.762" />
				<path data-name="Path 15798" d="M236.188 179.134a48.574 48.574 0 1148.575-48.575 48.631 48.631 0 01-48.575 48.575m0-93.521a44.947 44.947 0 1044.946 44.946 45 45 0 00-44.946-44.948" />
				<path data-name="Path 15799" d="M231.389 302.019l6.769-44.491c24.35-7.963 11.331-37.36 11.331-37.36 25.969.223 34.992-25.609 38.858-39.8a6.52 6.52 0 019.088-4.189c7.651 3.64 18.721 9.8 20.018 18.361 6.075 40.074 18.3 79.545-24.8 83.075v24.4z" fill="#e2f8ff" />
				<path data-name="Path 15800" d="M232.833 294.343a1.864 1.864 0 01-1.794-2.085l5.324-35.006a1.814 1.814 0 113.586.546l-5.327 35a1.811 1.811 0 01-1.789 1.542" />
				<path data-name="Path 15801" d="M292.657 298.019a1.814 1.814 0 01-1.813-1.813v-18.59a1.814 1.814 0 011.665-1.808c11.156-.915 18.861-4.291 23.553-10.328 9.421-12.12 5.719-34 1.8-57.171-.74-4.369-1.5-8.883-2.187-13.371a44.7 44.7 0 00-5.541-11.341 1.814 1.814 0 012.994-2.05 47.392 47.392 0 016.069 12.5c.732 4.721 1.5 9.265 2.244 13.656 4.054 23.978 7.885 46.628-2.515 60-5.1 6.567-13.112 10.357-24.454 11.56v16.941a1.814 1.814 0 01-1.813 1.813" />
				<path data-name="Path 15802" d="M292.657 279.429a69.463 69.463 0 01-22.348-3.645 1.815 1.815 0 011.27-3.4 67.249 67.249 0 0021.078 3.414 1.813 1.813 0 110 3.626" />
				<path data-name="Path 15803" d="M292.657 293.036s-7.2 6.26-14.474 1.184-8.967-20.979-8.967-20.979l23.44 4.374z" />
				<path data-name="Path 15804" d="M308.045 235.696a1.814 1.814 0 01-1.73-1.272l-7.355-23.559a1.812 1.812 0 013.46-1.081l7.361 23.558a1.817 1.817 0 01-1.733 2.354" />
				<path data-name="Path 15805" d="M219.474 183.503a1.814 1.814 0 01-.734-3.473l57.424-25.426a1.814 1.814 0 111.469 3.317l-57.425 25.425a1.83 1.83 0 01-.734.156" fill="#8338ec" />
				<path data-name="Path 15806" d="M441.307 519.832H247.081a24.231 24.231 0 01-24.231-24.231v-111.1a24.231 24.231 0 0124.231-24.231h194.226a24.231 24.231 0 0124.231 24.231v111.1a24.231 24.231 0 01-24.231 24.231" fill="#010064" />
				<path data-name="Path 15807" d="M363.564 440.051a19.37 19.37 0 11-19.37-19.37 19.37 19.37 0 0119.37 19.37" fill="#fff" />
				<path data-name="Path 15808" d="M37.822 479.527a1.814 1.814 0 01-.786-3.449c52.461-25.196 112.186-31.895 112.786-31.96a1.813 1.813 0 11.39 3.6c-.589.065-59.721 6.7-111.608 31.619a1.771 1.771 0 01-.783.18" />
				<path data-name="Path 15809" d="M150.015 573.181a1.813 1.813 0 01-1.063-3.285l41.063-29.563a1.814 1.814 0 012.12 2.943l-41.058 29.563a1.8 1.8 0 01-1.057.342" />
				<path data-name="Path 15810" d="M150.015 447.734a1.814 1.814 0 01-1.813-1.813v-90.662a1.813 1.813 0 013.626 0v90.662a1.814 1.814 0 01-1.813 1.813" />
				<path data-name="Path 15811" d="M550.953 10.247a47.994 47.994 0 11-67.388 8.108 47.995 47.995 0 0167.388-8.108" fill="#ea0553" />
				<path data-name="Path 15812" d="M493.393 154.822l106.884 3.974-9.155 115.092a53.456 53.456 0 01-106.4 1.819c-2.02-17.476-5.364-35.942-10.9-49.923-14.455-36.523 19.569-70.961 19.569-70.961" fill="#e2f8ff" />
				<path data-name="Path 15813" d="M537.723 324.926a55.321 55.321 0 01-54.8-49.014c-2.408-20.831-6.037-37.473-10.783-49.463-14.721-37.193 19.617-72.548 19.964-72.9a1.854 1.854 0 011.356-.538l106.887 3.974a1.814 1.814 0 011.738 1.948l-9.158 115.1a55.428 55.428 0 01-48.535 50.5 56.245 56.245 0 01-6.669.4m-43.576-168.269c-4.218 4.579-31.495 35.966-18.638 68.451 4.864 12.284 8.568 29.235 11.014 50.38a51.643 51.643 0 00102.792-1.751l9.006-113.211z" />
				<path data-name="Path 15814" d="M451.831 252.54l4.85-76.922s-102.224 14.853-136 21.5c-7.748 1.525-13.411 8.7-13.411 16.941a17.193 17.193 0 0013.626 16.994c32.571 6.287 130.935 21.487 130.935 21.487" fill="#fb5607" />
				<path data-name="Path 15815" d="M650.184 140.106c0-.043-1.73-.043-1.73-.043-5.814 0-189.233 21.783-191.7 22.251a52.68 52.68 0 009.879 104.425c1.049 0 174.288 20.981 177.3 21.164 1.6.094 3.056.151 4.522.151a73.984 73.984 0 001.73-147.948" fill="#fb5607" />
				<path data-name="Path 15816" d="M648.457 289.864a75.809 75.809 0 1175.808-75.805 75.894 75.894 0 01-75.809 75.809m0-147.991a72.182 72.182 0 1072.183 72.182 72.263 72.263 0 00-72.182-72.182" />
				<path data-name="Path 15817" d="M710.564 214.055a62.109 62.109 0 11-62.107-62.107 62.107 62.107 0 0162.107 62.107" fill="#fff" />
				<path data-name="Path 15818" d="M466.63 268.551a54.5 54.5 0 110-108.99 1.813 1.813 0 110 3.626 50.869 50.869 0 100 101.737 1.813 1.813 0 110 3.626" />
				<path data-name="Path 15819" d="M598.157 145.301c-14.2-14.213-31.465-17.7-49.041-8.2-14.807-9.669-27.8 1.967-27.8 1.967a18.83 18.83 0 00-13.637-1.09c-5.862 1.961-7.105 3.349-12.052 6.831-14.942-5.085-30.44 14.678-28.888 27.8.732 6.2 5.73 8.205 11.579 7.455a17.369 17.369 0 0011.269-6.3 10.737 10.737 0 007.831 8.749c6.1 1.724 11.525-1.221 14.958-5.892 1.4 5 7.374 7.74 12.983 6.833 8.765-1.412 13.871-8.8 17.6-16.287 2.147 4.218 9.427 5.464 14.183 3.554 8.977-3.6 16.887-13.053 21.108-21.9 6.287-.5 19.908-3.513 19.908-3.513" fill="#e2f8ff" />
				<path data-name="Path 15820" d="M523.164 185.439a13.451 13.451 0 01-11.229-5.51c-4.17 4.237-9.612 5.849-15.009 4.323a12.6 12.6 0 01-8.2-7.008 19.122 19.122 0 01-10.175 4.614c-4.084.527-7.533-.2-9.967-2.1a9.889 9.889 0 01-3.645-6.938c-.971-8.211 4.089-18.832 12.031-25.256 5.884-4.762 12.359-6.432 18.342-4.754.568-.406 1.084-.78 1.566-1.13a30.911 30.911 0 0110.228-5.424 20.389 20.389 0 0113.96.7c3.352-2.488 15.071-9.8 28.135-1.948 17.565-9.053 35.371-5.87 50.243 9.012a1.81 1.81 0 01-.89 3.051c-.533.118-12.48 2.752-19.12 3.457-3.96 7.839-11.783 17.922-21.608 21.869-4.469 1.794-10.893 1.154-14.522-1.964-3.575 6.553-8.819 13.384-17.653 14.807a15.6 15.6 0 01-2.483.2m-10.792-10.638a1.914 1.914 0 011.746 1.324c1.076 3.852 5.991 6.333 10.949 5.534 8.324-1.343 13.068-8.887 16.268-15.31a1.812 1.812 0 013.236-.013c1.7 3.339 7.96 4.275 11.894 2.693 9.249-3.715 16.634-13.632 20.145-20.995a1.811 1.811 0 011.493-1.028c4.194-.336 11.875-1.846 16.292-2.76-13.384-11.869-29.041-13.863-44.419-5.553a1.819 1.819 0 01-1.854-.078c-13.427-8.77-25.113 1.364-25.606 1.8a1.818 1.818 0 01-2.061.245c-.054-.03-5.932-3.064-12.206-.969a27.714 27.714 0 00-9.252 4.923c-.691.5-1.455 1.055-2.332 1.671a1.809 1.809 0 01-1.628.234c-6.755-2.295-12.795 1.431-15.8 3.86-6.925 5.6-11.528 15.065-10.707 22.009a6.4 6.4 0 002.276 4.506c2.085 1.63 5.106 1.641 7.272 1.364a15.672 15.672 0 0010.1-5.655 1.814 1.814 0 013.193.885 8.917 8.917 0 006.535 7.269c4.754 1.345 9.61-.608 13-5.219a1.81 1.81 0 011.461-.74" />
				<path data-name="Path 15821" d="M489.586 175.574a1.882 1.882 0 01-1.776-2.185l6.04-28.953a1.814 1.814 0 113.551.74l-6.039 28.953a1.813 1.813 0 01-1.773 1.445" />
				<path data-name="Path 15822" d="M512.38 178.433c-1.4-.282-2-1.259-1.765-2.233l8.94-37.551a1.812 1.812 0 013.527.837l-8.945 37.547a1.816 1.816 0 01-1.757 1.4" />
				<path data-name="Path 15823" d="M542.961 168.972a1.882 1.882 0 01-1.778-2.179l6.158-30.061a1.814 1.814 0 013.554.729l-6.161 30.061a1.811 1.811 0 01-1.773 1.45" />
				<path data-name="Path 15824" d="M563.286 278.305c-.756-36.569-29.684-50.257-38.9-54.058a33.432 33.432 0 00-12.865-2.515 52.158 52.158 0 00-7.258 1.2s-3.826-4.756-4.557-6.018c-6.115-10.559-28.837-43.152-43.025-21.183-6.841 10.6 4.9 26.268 9.451 36.469 5.623 12.593 16.553 46.525 19.044 46.625 7.926.317 18.982 1.515 31.667 1.837 31.027.788 46.442-2.357 46.442-2.357" fill="#e2f8ff" />
				<path data-name="Path 15825" d="M485.174 280.637a1.816 1.816 0 01-1.735-1.289c-.613-1.765-13.556-34.3-18.964-46.412-.936-2.1-2.209-4.479-3.556-7-5.227-9.774-11.735-21.939-5.76-31.191 3.626-5.617 8.106-8.426 13.333-8.275 15.458.374 31.056 26.55 32.783 29.534.409.708 2.265 3.1 3.7 4.91a42.29 42.29 0 016.537-1 36.236 36.236 0 0113.564 2.653c14.64 6.037 39.31 21.3 40.02 55.7a1.81 1.81 0 01-1.776 1.848 1.775 1.775 0 01-1.846-1.776c-.667-32.329-23.954-46.716-37.777-52.417a32.705 32.705 0 00-12.163-2.378 48.072 48.072 0 00-6.86 1.151 1.812 1.812 0 01-1.819-.63c-.4-.5-3.939-4.9-4.716-6.247-5.485-9.472-18.759-27.457-29.733-27.723-3.949-.091-7.261 2.069-10.2 6.615-4.813 7.457 1.133 18.579 5.913 27.513 1.377 2.58 2.68 5.015 3.67 7.234 5.313 11.9 18.974 46.151 19.157 46.967a1.815 1.815 0 01-1.369 2.168 2.053 2.053 0 01-.4.043" />
				<path data-name="Path 15826" d="M236.145 224.867a16.35 16.35 0 1016.351-16.351 16.35 16.35 0 00-16.351 16.351" fill="#e2f8ff" />
				<path data-name="Path 15827" d="M255.501 229.61a1.81 1.81 0 01-1.477-.759l-5.986-8.38a1.814 1.814 0 112.951-2.109l5.986 8.38a1.815 1.815 0 01-1.474 2.868" />
				<path data-name="Path 15828" d="M279.703 216.482a3.667 3.667 0 103.667-3.667 3.668 3.668 0 00-3.667 3.667" />
				<path data-name="Path 15829" d="M311.632 243.029h-8.663a1.813 1.813 0 110-3.626h8.663a1.813 1.813 0 010 3.626" />
				<path data-name="Path 15830" d="M668.824 390.445a24.38 24.38 0 1124.382-24.382 24.407 24.407 0 01-24.382 24.382m0-45.134a20.754 20.754 0 1020.755 20.753 20.778 20.778 0 00-20.755-20.753" />
				<path data-name="Path 15831" d="M648.535 180.123a34.087 34.087 0 1034.086 34.086h-34.086z" fill="#010064" />
				<path data-name="Path 15832" d="M657.236 171.872v34.086h34.09a34.085 34.085 0 00-34.09-34.086" fill="#73c0ae" />
				<path data-name="Path 15833" d="M276.453 415.093c15.6-3.683 28.315-10.761 27.094-18.883-1.377-9.139-12.83-12.319-21.947-11.482s-40.674 4.45-40.674 4.45 37.7-25.536 29.4-35.337-30.343-.476-38.882 4.291c-15.45 8.622-47.413 31.5-55.277 44.19s.621 35.267.621 35.267l-22.59 6.86a52.042 52.042 0 1034.185 98.221q4.508-1.776 9.513-3.764c52.546-20.876 34.887-53.329 34.887-53.329 13.995-6.508 57.327-5.582 55.879-25-.842-11.256-7.864-13.276-13.623-12.991 11.931-2.994 28.458-9.542 26.386-22.711-1.829-11.614-16.507-11.087-24.974-9.779" fill="#e2f8ff" />
				<path data-name="Path 15834" d="M169.327 548.091a53.85 53.85 0 01-15.657-105.377l20.793-6.314c-1.883-5.784-6.822-23.758.164-35.032 8.337-13.454 41.322-36.663 55.933-44.817 1.232-.689 30.3-16.7 41.15-3.879a6.978 6.978 0 011.542 5.7c-1.235 8.994-16.75 21.67-25.566 28.218 9.852-1.117 27.365-3.078 33.747-3.661 10.75-.99 22.421 3.166 23.906 13.018 1.081 7.183-6.3 12.959-15.959 16.954 7.993 1.076 12.789 5.055 13.836 11.7 1.528 9.7-5.475 17.427-20.338 22.569 3.718 1.765 7.016 5.547 7.592 13.279 1.125 15.036-20.642 19-38.132 22.192-6.61 1.205-12.9 2.351-17.129 3.906a32.36 32.36 0 01.307 22.9c-4.619 12.771-17.051 23.252-36.951 31.159q-5.008 1.989-9.515 3.764a53.853 53.853 0 01-19.722 3.734m89.79-196.736c-9.346 0-21.441 5.375-26.79 8.359-14.888 8.31-46.932 31.161-54.618 43.563-7.309 11.794.694 33.456.777 33.674a1.817 1.817 0 01-1.17 2.373l-22.593 6.86a50.228 50.228 0 1033 94.8q4.5-1.772 9.5-3.761c18.856-7.49 30.583-17.231 34.855-28.95a28.775 28.775 0 00-.89-21.829 1.814 1.814 0 01.829-2.507c4.544-2.112 11.891-3.452 19.671-4.869 16.895-3.08 36.044-6.572 35.164-18.353-.595-7.979-4.434-11.678-11.721-11.315a1.813 1.813 0 01-.533-3.57c12.413-3.121 26.835-9.238 25.033-20.672-1.579-10.032-15.028-9.489-22.9-8.27a1.813 1.813 0 01-.694-3.557c16.316-3.852 26.652-10.624 25.716-16.849-1.135-7.546-11.138-10.756-19.989-9.946-8.994.826-40.316 4.409-40.631 4.444a1.814 1.814 0 01-1.224-3.3c7.869-5.329 28.552-21.075 29.749-29.8a3.409 3.409 0 00-.713-2.857c-2.244-2.65-5.779-3.659-9.827-3.659" />
				<path data-name="Path 15835" d="M189.332 479.522a1.814 1.814 0 01-1.729-1.277l-14.307-45.762a1.813 1.813 0 013.46-1.084l14.309 45.766a1.818 1.818 0 01-1.733 2.357" />
				<path data-name="Path 15836" d="M216.708 459.786a1.813 1.813 0 01-.307-3.6l64.889-11.226a1.813 1.813 0 11.619 3.573l-64.891 11.226a1.768 1.768 0 01-.312.027" />
				<path data-name="Path 15837" d="M214.34 427.845a1.815 1.815 0 01-.307-3.6l67.334-11.652a1.813 1.813 0 11.619 3.573l-67.334 11.652a1.77 1.77 0 01-.312.027" />
				<path data-name="Path 15838" d="M211.441 397.54a1.813 1.813 0 01-.39-3.583l29.48-6.548a1.814 1.814 0 11.788 3.54l-29.483 6.547a1.8 1.8 0 01-.4.043" />
			</g>
		</g>
	</g>
	<path data-name="Path 18856" d="M259.536 178.279a3.754 3.754 0 01-2.654-7.023 3.754 3.754 0 012.654 7.023" />
	<path data-name="Path 18857" d="M274.352 158.116a7.168 7.168 0 01-2.8.379 7.78 7.78 0 01-2.673-.658 6.936 6.936 0 01-3.7-3.884 7.133 7.133 0 01-.366-1.363 11.979 11.979 0 01-.1-1.363 6.987 6.987 0 01.525-2.627 7.269 7.269 0 013.791-3.917 6.919 6.919 0 015.493-.033 7.644 7.644 0 012.354 1.583 5.722 5.722 0 01.918 1.15 7.855 7.855 0 01.665 1.363 7.489 7.489 0 01-.093 5.673 6.625 6.625 0 01-1.576 2.241 6.956 6.956 0 01-2.441 1.456" />
	<path data-name="Path 18858" d="M283.317 231.062a7.288 7.288 0 01-4.848-2.487 6.873 6.873 0 01-1.337-2.321 7.307 7.307 0 01-.446-2.733 6.963 6.963 0 012.268-4.855 7.385 7.385 0 015.061-2.028 6.791 6.791 0 015.021 2.208 7.5 7.5 0 011.9 5.347 7.3 7.3 0 01-.685 2.886 7.56 7.56 0 01-1.722 2.261 6.886 6.886 0 01-5.214 1.722" />
</svg>